<mxfile host="app.diagrams.net" modified="2024-05-23T18:50:17.892Z" agent="Mozilla/5.0 (Windows NT 10.0; Win64; x64; rv:126.0) Gecko/20100101 Firefox/126.0" etag="HP3z6gddPSzBHltS3taq" version="24.4.4" type="device">
  <diagram id="C5RBs43oDa-KdzZeNtuy" name="Page-1">
    <mxGraphModel dx="1553" dy="1189" grid="1" gridSize="10" guides="1" tooltips="1" connect="1" arrows="1" fold="1" page="1" pageScale="1" pageWidth="827" pageHeight="1169" math="0" shadow="0">
      <root>
        <mxCell id="WIyWlLk6GJQsqaUBKTNV-0" />
        <mxCell id="WIyWlLk6GJQsqaUBKTNV-1" parent="WIyWlLk6GJQsqaUBKTNV-0" />
        <mxCell id="zkfFHV4jXpPFQw0GAbJ--0" value="Planet" style="swimlane;fontStyle=2;align=center;verticalAlign=top;childLayout=stackLayout;horizontal=1;startSize=26;horizontalStack=0;resizeParent=1;resizeLast=0;collapsible=1;marginBottom=0;rounded=0;shadow=0;strokeWidth=1;fillColor=#d5e8d4;strokeColor=#82b366;" parent="WIyWlLk6GJQsqaUBKTNV-1" vertex="1">
          <mxGeometry x="1369.79" y="691.5" width="300" height="476" as="geometry">
            <mxRectangle x="230" y="140" width="160" height="26" as="alternateBounds" />
          </mxGeometry>
        </mxCell>
        <mxCell id="zkfFHV4jXpPFQw0GAbJ--1" value="- technologyDefense: int" style="text;align=left;verticalAlign=top;spacingLeft=4;spacingRight=4;overflow=hidden;rotatable=0;points=[[0,0.5],[1,0.5]];portConstraint=eastwest;" parent="zkfFHV4jXpPFQw0GAbJ--0" vertex="1">
          <mxGeometry y="26" width="300" height="26" as="geometry" />
        </mxCell>
        <mxCell id="zkfFHV4jXpPFQw0GAbJ--2" value="- technologyAtack: int" style="text;align=left;verticalAlign=top;spacingLeft=4;spacingRight=4;overflow=hidden;rotatable=0;points=[[0,0.5],[1,0.5]];portConstraint=eastwest;rounded=0;shadow=0;html=0;" parent="zkfFHV4jXpPFQw0GAbJ--0" vertex="1">
          <mxGeometry y="52" width="300" height="26" as="geometry" />
        </mxCell>
        <mxCell id="zkfFHV4jXpPFQw0GAbJ--3" value="- metal: int" style="text;align=left;verticalAlign=top;spacingLeft=4;spacingRight=4;overflow=hidden;rotatable=0;points=[[0,0.5],[1,0.5]];portConstraint=eastwest;rounded=0;shadow=0;html=0;" parent="zkfFHV4jXpPFQw0GAbJ--0" vertex="1">
          <mxGeometry y="78" width="300" height="26" as="geometry" />
        </mxCell>
        <mxCell id="yOh_PV8WEjJfi7kVjiH2-0" value="- deuterium: int" style="text;align=left;verticalAlign=top;spacingLeft=4;spacingRight=4;overflow=hidden;rotatable=0;points=[[0,0.5],[1,0.5]];portConstraint=eastwest;rounded=0;shadow=0;html=0;" parent="zkfFHV4jXpPFQw0GAbJ--0" vertex="1">
          <mxGeometry y="104" width="300" height="26" as="geometry" />
        </mxCell>
        <mxCell id="yOh_PV8WEjJfi7kVjiH2-1" value="- upgradeDefenseTechnologyDeuteriumCost: int" style="text;align=left;verticalAlign=top;spacingLeft=4;spacingRight=4;overflow=hidden;rotatable=0;points=[[0,0.5],[1,0.5]];portConstraint=eastwest;rounded=0;shadow=0;html=0;" parent="zkfFHV4jXpPFQw0GAbJ--0" vertex="1">
          <mxGeometry y="130" width="300" height="26" as="geometry" />
        </mxCell>
        <mxCell id="yOh_PV8WEjJfi7kVjiH2-2" value="- upgradeAttackTechnologyDeuteriumCost: int" style="text;align=left;verticalAlign=top;spacingLeft=4;spacingRight=4;overflow=hidden;rotatable=0;points=[[0,0.5],[1,0.5]];portConstraint=eastwest;rounded=0;shadow=0;html=0;" parent="zkfFHV4jXpPFQw0GAbJ--0" vertex="1">
          <mxGeometry y="156" width="300" height="26" as="geometry" />
        </mxCell>
        <mxCell id="5EO1GUWcIYaJtxIAbVqV-24" value="- army: EnumMap&lt;UnitType, ArrayList&lt;MilitaryUnit&gt;&gt;" style="text;align=left;verticalAlign=top;spacingLeft=4;spacingRight=4;overflow=hidden;rotatable=0;points=[[0,0.5],[1,0.5]];portConstraint=eastwest;rounded=0;shadow=0;html=0;" parent="zkfFHV4jXpPFQw0GAbJ--0" vertex="1">
          <mxGeometry y="182" width="300" height="26" as="geometry" />
        </mxCell>
        <mxCell id="zkfFHV4jXpPFQw0GAbJ--4" value="" style="line;html=1;strokeWidth=1;align=left;verticalAlign=middle;spacingTop=-1;spacingLeft=3;spacingRight=3;rotatable=0;labelPosition=right;points=[];portConstraint=eastwest;" parent="zkfFHV4jXpPFQw0GAbJ--0" vertex="1">
          <mxGeometry y="208" width="300" height="8" as="geometry" />
        </mxCell>
        <mxCell id="yOh_PV8WEjJfi7kVjiH2-5" value="+ upgradeTechnologyDefense(): void" style="text;align=left;verticalAlign=top;spacingLeft=4;spacingRight=4;overflow=hidden;rotatable=0;points=[[0,0.5],[1,0.5]];portConstraint=eastwest;rounded=0;shadow=0;html=0;" parent="zkfFHV4jXpPFQw0GAbJ--0" vertex="1">
          <mxGeometry y="216" width="300" height="26" as="geometry" />
        </mxCell>
        <mxCell id="yOh_PV8WEjJfi7kVjiH2-6" value="+ upgradeTechnologyAttack(): void" style="text;align=left;verticalAlign=top;spacingLeft=4;spacingRight=4;overflow=hidden;rotatable=0;points=[[0,0.5],[1,0.5]];portConstraint=eastwest;rounded=0;shadow=0;html=0;" parent="zkfFHV4jXpPFQw0GAbJ--0" vertex="1">
          <mxGeometry y="242" width="300" height="26" as="geometry" />
        </mxCell>
        <mxCell id="yOh_PV8WEjJfi7kVjiH2-7" value="+ newLigthHunter(int n): void " style="text;align=left;verticalAlign=top;spacingLeft=4;spacingRight=4;overflow=hidden;rotatable=0;points=[[0,0.5],[1,0.5]];portConstraint=eastwest;rounded=0;shadow=0;html=0;" parent="zkfFHV4jXpPFQw0GAbJ--0" vertex="1">
          <mxGeometry y="268" width="300" height="26" as="geometry" />
        </mxCell>
        <mxCell id="yOh_PV8WEjJfi7kVjiH2-8" value="+ newHeavyHunter(int n): void " style="text;align=left;verticalAlign=top;spacingLeft=4;spacingRight=4;overflow=hidden;rotatable=0;points=[[0,0.5],[1,0.5]];portConstraint=eastwest;rounded=0;shadow=0;html=0;" parent="zkfFHV4jXpPFQw0GAbJ--0" vertex="1">
          <mxGeometry y="294" width="300" height="26" as="geometry" />
        </mxCell>
        <mxCell id="yOh_PV8WEjJfi7kVjiH2-9" value="+ newBattleShip(int n): void " style="text;align=left;verticalAlign=top;spacingLeft=4;spacingRight=4;overflow=hidden;rotatable=0;points=[[0,0.5],[1,0.5]];portConstraint=eastwest;rounded=0;shadow=0;html=0;" parent="zkfFHV4jXpPFQw0GAbJ--0" vertex="1">
          <mxGeometry y="320" width="300" height="26" as="geometry" />
        </mxCell>
        <mxCell id="yOh_PV8WEjJfi7kVjiH2-10" value="+ newArmoredShip(int n): void " style="text;align=left;verticalAlign=top;spacingLeft=4;spacingRight=4;overflow=hidden;rotatable=0;points=[[0,0.5],[1,0.5]];portConstraint=eastwest;rounded=0;shadow=0;html=0;" parent="zkfFHV4jXpPFQw0GAbJ--0" vertex="1">
          <mxGeometry y="346" width="300" height="26" as="geometry" />
        </mxCell>
        <mxCell id="yOh_PV8WEjJfi7kVjiH2-11" value="+ newMissileLauncher(int n): void " style="text;align=left;verticalAlign=top;spacingLeft=4;spacingRight=4;overflow=hidden;rotatable=0;points=[[0,0.5],[1,0.5]];portConstraint=eastwest;rounded=0;shadow=0;html=0;" parent="zkfFHV4jXpPFQw0GAbJ--0" vertex="1">
          <mxGeometry y="372" width="300" height="26" as="geometry" />
        </mxCell>
        <mxCell id="yOh_PV8WEjJfi7kVjiH2-12" value="+ newIonCannon(int n): void " style="text;align=left;verticalAlign=top;spacingLeft=4;spacingRight=4;overflow=hidden;rotatable=0;points=[[0,0.5],[1,0.5]];portConstraint=eastwest;rounded=0;shadow=0;html=0;" parent="zkfFHV4jXpPFQw0GAbJ--0" vertex="1">
          <mxGeometry y="398" width="300" height="26" as="geometry" />
        </mxCell>
        <mxCell id="yOh_PV8WEjJfi7kVjiH2-13" value="+ newPlasmaCannon(int n): void " style="text;align=left;verticalAlign=top;spacingLeft=4;spacingRight=4;overflow=hidden;rotatable=0;points=[[0,0.5],[1,0.5]];portConstraint=eastwest;rounded=0;shadow=0;html=0;" parent="zkfFHV4jXpPFQw0GAbJ--0" vertex="1">
          <mxGeometry y="424" width="300" height="26" as="geometry" />
        </mxCell>
        <mxCell id="yOh_PV8WEjJfi7kVjiH2-14" value="+ printStats(): void " style="text;align=left;verticalAlign=top;spacingLeft=4;spacingRight=4;overflow=hidden;rotatable=0;points=[[0,0.5],[1,0.5]];portConstraint=eastwest;rounded=0;shadow=0;html=0;" parent="zkfFHV4jXpPFQw0GAbJ--0" vertex="1">
          <mxGeometry y="450" width="300" height="26" as="geometry" />
        </mxCell>
        <mxCell id="zkfFHV4jXpPFQw0GAbJ--6" value="Ship" style="swimlane;fontStyle=0;align=center;verticalAlign=top;childLayout=stackLayout;horizontal=1;startSize=26;horizontalStack=0;resizeParent=1;resizeLast=0;collapsible=1;marginBottom=0;rounded=0;shadow=0;strokeWidth=1;" parent="WIyWlLk6GJQsqaUBKTNV-1" vertex="1">
          <mxGeometry x="278" y="694" width="160" height="114" as="geometry">
            <mxRectangle x="130" y="380" width="160" height="26" as="alternateBounds" />
          </mxGeometry>
        </mxCell>
        <mxCell id="zkfFHV4jXpPFQw0GAbJ--7" value="- armor: int" style="text;align=left;verticalAlign=top;spacingLeft=4;spacingRight=4;overflow=hidden;rotatable=0;points=[[0,0.5],[1,0.5]];portConstraint=eastwest;" parent="zkfFHV4jXpPFQw0GAbJ--6" vertex="1">
          <mxGeometry y="26" width="160" height="26" as="geometry" />
        </mxCell>
        <mxCell id="zkfFHV4jXpPFQw0GAbJ--8" value="- initialArmor: int" style="text;align=left;verticalAlign=top;spacingLeft=4;spacingRight=4;overflow=hidden;rotatable=0;points=[[0,0.5],[1,0.5]];portConstraint=eastwest;rounded=0;shadow=0;html=0;" parent="zkfFHV4jXpPFQw0GAbJ--6" vertex="1">
          <mxGeometry y="52" width="160" height="26" as="geometry" />
        </mxCell>
        <mxCell id="yOh_PV8WEjJfi7kVjiH2-15" value="- baseDamage: int" style="text;align=left;verticalAlign=top;spacingLeft=4;spacingRight=4;overflow=hidden;rotatable=0;points=[[0,0.5],[1,0.5]];portConstraint=eastwest;rounded=0;shadow=0;html=0;" parent="zkfFHV4jXpPFQw0GAbJ--6" vertex="1">
          <mxGeometry y="78" width="160" height="26" as="geometry" />
        </mxCell>
        <mxCell id="zkfFHV4jXpPFQw0GAbJ--16" value="" style="endArrow=block;endSize=10;endFill=0;shadow=0;strokeWidth=1;rounded=0;curved=0;edgeStyle=elbowEdgeStyle;elbow=vertical;" parent="WIyWlLk6GJQsqaUBKTNV-1" target="zkfFHV4jXpPFQw0GAbJ--0" edge="1">
          <mxGeometry width="160" relative="1" as="geometry">
            <mxPoint x="1509.79" y="1196.5" as="sourcePoint" />
            <mxPoint x="1239.79" y="952.5" as="targetPoint" />
          </mxGeometry>
        </mxCell>
        <mxCell id="YW5f9N3jxOXYz25lWCUv-0" value="ResourceException" style="swimlane;fontStyle=0;align=center;verticalAlign=top;childLayout=stackLayout;horizontal=1;startSize=26;horizontalStack=0;resizeParent=1;resizeLast=0;collapsible=1;marginBottom=0;rounded=0;shadow=0;strokeWidth=1;" parent="WIyWlLk6GJQsqaUBKTNV-1" vertex="1">
          <mxGeometry x="1840" y="692" width="160" height="32" as="geometry">
            <mxRectangle x="130" y="380" width="160" height="26" as="alternateBounds" />
          </mxGeometry>
        </mxCell>
        <mxCell id="YW5f9N3jxOXYz25lWCUv-4" value="&lt;&lt;interface&gt;&gt;&#xa;MilitaryUnit" style="swimlane;fontStyle=1;align=center;verticalAlign=top;childLayout=stackLayout;horizontal=1;startSize=40;horizontalStack=0;resizeParent=1;resizeLast=0;collapsible=1;marginBottom=0;rounded=0;shadow=0;strokeWidth=1;fillColor=#d5e8d4;strokeColor=#82b366;" parent="WIyWlLk6GJQsqaUBKTNV-1" vertex="1">
          <mxGeometry x="736.09" y="942" width="300" height="248" as="geometry">
            <mxRectangle x="130" y="380" width="160" height="26" as="alternateBounds" />
          </mxGeometry>
        </mxCell>
        <mxCell id="YW5f9N3jxOXYz25lWCUv-5" value="+ attack(): abstract int " style="text;align=left;verticalAlign=top;spacingLeft=4;spacingRight=4;overflow=hidden;rotatable=0;points=[[0,0.5],[1,0.5]];portConstraint=eastwest;" parent="YW5f9N3jxOXYz25lWCUv-4" vertex="1">
          <mxGeometry y="40" width="300" height="26" as="geometry" />
        </mxCell>
        <mxCell id="YW5f9N3jxOXYz25lWCUv-6" value="+ tekeDamage(int receivedDamage): abstract void " style="text;align=left;verticalAlign=top;spacingLeft=4;spacingRight=4;overflow=hidden;rotatable=0;points=[[0,0.5],[1,0.5]];portConstraint=eastwest;rounded=0;shadow=0;html=0;" parent="YW5f9N3jxOXYz25lWCUv-4" vertex="1">
          <mxGeometry y="66" width="300" height="26" as="geometry" />
        </mxCell>
        <mxCell id="YW5f9N3jxOXYz25lWCUv-7" value="+ getActualArmor(): abstract int " style="text;align=left;verticalAlign=top;spacingLeft=4;spacingRight=4;overflow=hidden;rotatable=0;points=[[0,0.5],[1,0.5]];portConstraint=eastwest;rounded=0;shadow=0;html=0;" parent="YW5f9N3jxOXYz25lWCUv-4" vertex="1">
          <mxGeometry y="92" width="300" height="26" as="geometry" />
        </mxCell>
        <mxCell id="YW5f9N3jxOXYz25lWCUv-8" value="+ getMetalCost(): abstract int " style="text;align=left;verticalAlign=top;spacingLeft=4;spacingRight=4;overflow=hidden;rotatable=0;points=[[0,0.5],[1,0.5]];portConstraint=eastwest;rounded=0;shadow=0;html=0;" parent="YW5f9N3jxOXYz25lWCUv-4" vertex="1">
          <mxGeometry y="118" width="300" height="26" as="geometry" />
        </mxCell>
        <mxCell id="YW5f9N3jxOXYz25lWCUv-9" value="+ getDeuteriumCost(): abstract int " style="text;align=left;verticalAlign=top;spacingLeft=4;spacingRight=4;overflow=hidden;rotatable=0;points=[[0,0.5],[1,0.5]];portConstraint=eastwest;rounded=0;shadow=0;html=0;" parent="YW5f9N3jxOXYz25lWCUv-4" vertex="1">
          <mxGeometry y="144" width="300" height="26" as="geometry" />
        </mxCell>
        <mxCell id="YW5f9N3jxOXYz25lWCUv-10" value="+ getChanceGeneratinWaste(): abstract int " style="text;align=left;verticalAlign=top;spacingLeft=4;spacingRight=4;overflow=hidden;rotatable=0;points=[[0,0.5],[1,0.5]];portConstraint=eastwest;rounded=0;shadow=0;html=0;" parent="YW5f9N3jxOXYz25lWCUv-4" vertex="1">
          <mxGeometry y="170" width="300" height="26" as="geometry" />
        </mxCell>
        <mxCell id="YW5f9N3jxOXYz25lWCUv-11" value="+ getChanceAttackAgain(): abstract int " style="text;align=left;verticalAlign=top;spacingLeft=4;spacingRight=4;overflow=hidden;rotatable=0;points=[[0,0.5],[1,0.5]];portConstraint=eastwest;rounded=0;shadow=0;html=0;" parent="YW5f9N3jxOXYz25lWCUv-4" vertex="1">
          <mxGeometry y="196" width="300" height="26" as="geometry" />
        </mxCell>
        <mxCell id="YW5f9N3jxOXYz25lWCUv-12" value="+ resetArmor(): abstract void " style="text;align=left;verticalAlign=top;spacingLeft=4;spacingRight=4;overflow=hidden;rotatable=0;points=[[0,0.5],[1,0.5]];portConstraint=eastwest;rounded=0;shadow=0;html=0;" parent="YW5f9N3jxOXYz25lWCUv-4" vertex="1">
          <mxGeometry y="222" width="300" height="26" as="geometry" />
        </mxCell>
        <mxCell id="YW5f9N3jxOXYz25lWCUv-65" value="&lt;&lt;abstract&gt;&gt; &#xa;Defense" style="swimlane;fontStyle=1;align=center;verticalAlign=top;childLayout=stackLayout;horizontal=1;startSize=40;horizontalStack=0;resizeParent=1;resizeLast=0;collapsible=1;marginBottom=0;rounded=0;shadow=0;strokeWidth=1;" parent="WIyWlLk6GJQsqaUBKTNV-1" vertex="1">
          <mxGeometry x="580" y="1270" width="300" height="120" as="geometry">
            <mxRectangle x="130" y="380" width="160" height="26" as="alternateBounds" />
          </mxGeometry>
        </mxCell>
        <mxCell id="YW5f9N3jxOXYz25lWCUv-66" value="- armor: int" style="text;align=left;verticalAlign=top;spacingLeft=4;spacingRight=4;overflow=hidden;rotatable=0;points=[[0,0.5],[1,0.5]];portConstraint=eastwest;rounded=0;shadow=0;html=0;" parent="YW5f9N3jxOXYz25lWCUv-65" vertex="1">
          <mxGeometry y="40" width="300" height="26" as="geometry" />
        </mxCell>
        <mxCell id="YW5f9N3jxOXYz25lWCUv-67" value="- initialArmor: int" style="text;align=left;verticalAlign=top;spacingLeft=4;spacingRight=4;overflow=hidden;rotatable=0;points=[[0,0.5],[1,0.5]];portConstraint=eastwest;rounded=0;shadow=0;html=0;" parent="YW5f9N3jxOXYz25lWCUv-65" vertex="1">
          <mxGeometry y="66" width="300" height="26" as="geometry" />
        </mxCell>
        <mxCell id="YW5f9N3jxOXYz25lWCUv-69" value="-baseDamage: int" style="text;align=left;verticalAlign=top;spacingLeft=4;spacingRight=4;overflow=hidden;rotatable=0;points=[[0,0.5],[1,0.5]];portConstraint=eastwest;rounded=0;shadow=0;html=0;" parent="YW5f9N3jxOXYz25lWCUv-65" vertex="1">
          <mxGeometry y="92" width="300" height="26" as="geometry" />
        </mxCell>
        <mxCell id="tPDsgB1794YTJnG31M0B-0" value="&lt;&lt;interface&gt;&gt;&#xa;variables" style="swimlane;fontStyle=0;align=center;verticalAlign=top;childLayout=stackLayout;horizontal=1;startSize=40;horizontalStack=0;resizeParent=1;resizeLast=0;collapsible=1;marginBottom=0;rounded=0;shadow=0;strokeWidth=1;" parent="WIyWlLk6GJQsqaUBKTNV-1" vertex="1">
          <mxGeometry x="-321" y="930" width="550" height="2134" as="geometry">
            <mxRectangle x="130" y="380" width="160" height="26" as="alternateBounds" />
          </mxGeometry>
        </mxCell>
        <mxCell id="tPDsgB1794YTJnG31M0B-1" value="+ DEUTERIUM_BASE_ENEMY_ARMY: final int" style="text;align=left;verticalAlign=top;spacingLeft=4;spacingRight=4;overflow=hidden;rotatable=0;points=[[0,0.5],[1,0.5]];portConstraint=eastwest;" parent="tPDsgB1794YTJnG31M0B-0" vertex="1">
          <mxGeometry y="40" width="550" height="26" as="geometry" />
        </mxCell>
        <mxCell id="tPDsgB1794YTJnG31M0B-2" value="+ METAL_BASE_ENEMY_ARMY: final int" style="text;align=left;verticalAlign=top;spacingLeft=4;spacingRight=4;overflow=hidden;rotatable=0;points=[[0,0.5],[1,0.5]];portConstraint=eastwest;rounded=0;shadow=0;html=0;" parent="tPDsgB1794YTJnG31M0B-0" vertex="1">
          <mxGeometry y="66" width="550" height="26" as="geometry" />
        </mxCell>
        <mxCell id="tPDsgB1794YTJnG31M0B-3" value="+ ENEMY_FLEET_INCREASE: final int" style="text;align=left;verticalAlign=top;spacingLeft=4;spacingRight=4;overflow=hidden;rotatable=0;points=[[0,0.5],[1,0.5]];portConstraint=eastwest;rounded=0;shadow=0;html=0;" parent="tPDsgB1794YTJnG31M0B-0" vertex="1">
          <mxGeometry y="92" width="550" height="26" as="geometry" />
        </mxCell>
        <mxCell id="tPDsgB1794YTJnG31M0B-4" value="+ PLANET_DEUTERIUM_GENERATED: final int" style="text;align=left;verticalAlign=top;spacingLeft=4;spacingRight=4;overflow=hidden;rotatable=0;points=[[0,0.5],[1,0.5]];portConstraint=eastwest;rounded=0;shadow=0;html=0;" parent="tPDsgB1794YTJnG31M0B-0" vertex="1">
          <mxGeometry y="118" width="550" height="26" as="geometry" />
        </mxCell>
        <mxCell id="tPDsgB1794YTJnG31M0B-5" value="+ PLANET_METAL_GENERATED: final int" style="text;align=left;verticalAlign=top;spacingLeft=4;spacingRight=4;overflow=hidden;rotatable=0;points=[[0,0.5],[1,0.5]];portConstraint=eastwest;rounded=0;shadow=0;html=0;" parent="tPDsgB1794YTJnG31M0B-0" vertex="1">
          <mxGeometry y="144" width="550" height="26" as="geometry" />
        </mxCell>
        <mxCell id="tPDsgB1794YTJnG31M0B-6" value="+ UPGRADE_BASE_DEFENSE_TECHNOLOGY_DEUTERIUM_COST: final int" style="text;align=left;verticalAlign=top;spacingLeft=4;spacingRight=4;overflow=hidden;rotatable=0;points=[[0,0.5],[1,0.5]];portConstraint=eastwest;rounded=0;shadow=0;html=0;" parent="tPDsgB1794YTJnG31M0B-0" vertex="1">
          <mxGeometry y="170" width="550" height="26" as="geometry" />
        </mxCell>
        <mxCell id="tPDsgB1794YTJnG31M0B-7" value="+UPGRADE_BASE_ATTACK_TECHNOLOGY_DEUTERIUM_COST: final int" style="text;align=left;verticalAlign=top;spacingLeft=4;spacingRight=4;overflow=hidden;rotatable=0;points=[[0,0.5],[1,0.5]];portConstraint=eastwest;rounded=0;shadow=0;html=0;" parent="tPDsgB1794YTJnG31M0B-0" vertex="1">
          <mxGeometry y="196" width="550" height="26" as="geometry" />
        </mxCell>
        <mxCell id="tPDsgB1794YTJnG31M0B-9" value="+ UPGRADE_PLUS_DEFENSE_TECHNOLOGY_DEUTERIUM_COST: final int" style="text;align=left;verticalAlign=top;spacingLeft=4;spacingRight=4;overflow=hidden;rotatable=0;points=[[0,0.5],[1,0.5]];portConstraint=eastwest;rounded=0;shadow=0;html=0;" parent="tPDsgB1794YTJnG31M0B-0" vertex="1">
          <mxGeometry y="222" width="550" height="26" as="geometry" />
        </mxCell>
        <mxCell id="tPDsgB1794YTJnG31M0B-10" value="+UPGRADE_PLUS_ATTACK_TECHNOLOGY_DEUTERIUM_COST: final int" style="text;align=left;verticalAlign=top;spacingLeft=4;spacingRight=4;overflow=hidden;rotatable=0;points=[[0,0.5],[1,0.5]];portConstraint=eastwest;rounded=0;shadow=0;html=0;" parent="tPDsgB1794YTJnG31M0B-0" vertex="1">
          <mxGeometry y="248" width="550" height="26" as="geometry" />
        </mxCell>
        <mxCell id="tPDsgB1794YTJnG31M0B-11" value="+METAL_COST_LIGTHHUNTER: final int" style="text;align=left;verticalAlign=top;spacingLeft=4;spacingRight=4;overflow=hidden;rotatable=0;points=[[0,0.5],[1,0.5]];portConstraint=eastwest;rounded=0;shadow=0;html=0;" parent="tPDsgB1794YTJnG31M0B-0" vertex="1">
          <mxGeometry y="274" width="550" height="26" as="geometry" />
        </mxCell>
        <mxCell id="tPDsgB1794YTJnG31M0B-12" value="+METAL_COST_HEAVYHUNTER: final int" style="text;align=left;verticalAlign=top;spacingLeft=4;spacingRight=4;overflow=hidden;rotatable=0;points=[[0,0.5],[1,0.5]];portConstraint=eastwest;rounded=0;shadow=0;html=0;" parent="tPDsgB1794YTJnG31M0B-0" vertex="1">
          <mxGeometry y="300" width="550" height="26" as="geometry" />
        </mxCell>
        <mxCell id="tPDsgB1794YTJnG31M0B-13" value="+METAL_COST_BATTLESHIP: final int" style="text;align=left;verticalAlign=top;spacingLeft=4;spacingRight=4;overflow=hidden;rotatable=0;points=[[0,0.5],[1,0.5]];portConstraint=eastwest;rounded=0;shadow=0;html=0;" parent="tPDsgB1794YTJnG31M0B-0" vertex="1">
          <mxGeometry y="326" width="550" height="26" as="geometry" />
        </mxCell>
        <mxCell id="tPDsgB1794YTJnG31M0B-14" value="+METAL_COST_ARMOREDSHIP: final int" style="text;align=left;verticalAlign=top;spacingLeft=4;spacingRight=4;overflow=hidden;rotatable=0;points=[[0,0.5],[1,0.5]];portConstraint=eastwest;rounded=0;shadow=0;html=0;" parent="tPDsgB1794YTJnG31M0B-0" vertex="1">
          <mxGeometry y="352" width="550" height="26" as="geometry" />
        </mxCell>
        <mxCell id="tPDsgB1794YTJnG31M0B-15" value="+DEUTERIUM_COST_LIGTHHUNTER: final int" style="text;align=left;verticalAlign=top;spacingLeft=4;spacingRight=4;overflow=hidden;rotatable=0;points=[[0,0.5],[1,0.5]];portConstraint=eastwest;rounded=0;shadow=0;html=0;" parent="tPDsgB1794YTJnG31M0B-0" vertex="1">
          <mxGeometry y="378" width="550" height="26" as="geometry" />
        </mxCell>
        <mxCell id="tPDsgB1794YTJnG31M0B-16" value="+DEUTERIUM_COST_HEAVYHUNTER: final int" style="text;align=left;verticalAlign=top;spacingLeft=4;spacingRight=4;overflow=hidden;rotatable=0;points=[[0,0.5],[1,0.5]];portConstraint=eastwest;rounded=0;shadow=0;html=0;" parent="tPDsgB1794YTJnG31M0B-0" vertex="1">
          <mxGeometry y="404" width="550" height="26" as="geometry" />
        </mxCell>
        <mxCell id="tPDsgB1794YTJnG31M0B-17" value="+DEUTERIUM_COST_BATTLESHIP: final int" style="text;align=left;verticalAlign=top;spacingLeft=4;spacingRight=4;overflow=hidden;rotatable=0;points=[[0,0.5],[1,0.5]];portConstraint=eastwest;rounded=0;shadow=0;html=0;" parent="tPDsgB1794YTJnG31M0B-0" vertex="1">
          <mxGeometry y="430" width="550" height="26" as="geometry" />
        </mxCell>
        <mxCell id="tPDsgB1794YTJnG31M0B-18" value="+DEUTERIUM_COST_ARMOREDSHIP: final int" style="text;align=left;verticalAlign=top;spacingLeft=4;spacingRight=4;overflow=hidden;rotatable=0;points=[[0,0.5],[1,0.5]];portConstraint=eastwest;rounded=0;shadow=0;html=0;" parent="tPDsgB1794YTJnG31M0B-0" vertex="1">
          <mxGeometry y="456" width="550" height="26" as="geometry" />
        </mxCell>
        <mxCell id="tPDsgB1794YTJnG31M0B-19" value="+DEUTERIUM_COST_MISSILELAUNCHER: final int" style="text;align=left;verticalAlign=top;spacingLeft=4;spacingRight=4;overflow=hidden;rotatable=0;points=[[0,0.5],[1,0.5]];portConstraint=eastwest;rounded=0;shadow=0;html=0;" parent="tPDsgB1794YTJnG31M0B-0" vertex="1">
          <mxGeometry y="482" width="550" height="26" as="geometry" />
        </mxCell>
        <mxCell id="tPDsgB1794YTJnG31M0B-20" value="+DEUTERIUM_COST_IONCANNON: final int" style="text;align=left;verticalAlign=top;spacingLeft=4;spacingRight=4;overflow=hidden;rotatable=0;points=[[0,0.5],[1,0.5]];portConstraint=eastwest;rounded=0;shadow=0;html=0;" parent="tPDsgB1794YTJnG31M0B-0" vertex="1">
          <mxGeometry y="508" width="550" height="26" as="geometry" />
        </mxCell>
        <mxCell id="tPDsgB1794YTJnG31M0B-21" value="+DEUTERIUM_COST_PLASMACANNON: final int" style="text;align=left;verticalAlign=top;spacingLeft=4;spacingRight=4;overflow=hidden;rotatable=0;points=[[0,0.5],[1,0.5]];portConstraint=eastwest;rounded=0;shadow=0;html=0;" parent="tPDsgB1794YTJnG31M0B-0" vertex="1">
          <mxGeometry y="534" width="550" height="26" as="geometry" />
        </mxCell>
        <mxCell id="tPDsgB1794YTJnG31M0B-22" value="+METAL_COST_MISSILELAUNCHER: final int" style="text;align=left;verticalAlign=top;spacingLeft=4;spacingRight=4;overflow=hidden;rotatable=0;points=[[0,0.5],[1,0.5]];portConstraint=eastwest;rounded=0;shadow=0;html=0;" parent="tPDsgB1794YTJnG31M0B-0" vertex="1">
          <mxGeometry y="560" width="550" height="26" as="geometry" />
        </mxCell>
        <mxCell id="tPDsgB1794YTJnG31M0B-23" value="+METAL_COST_IONCANNON: final int" style="text;align=left;verticalAlign=top;spacingLeft=4;spacingRight=4;overflow=hidden;rotatable=0;points=[[0,0.5],[1,0.5]];portConstraint=eastwest;rounded=0;shadow=0;html=0;" parent="tPDsgB1794YTJnG31M0B-0" vertex="1">
          <mxGeometry y="586" width="550" height="26" as="geometry" />
        </mxCell>
        <mxCell id="tPDsgB1794YTJnG31M0B-24" value="+METAL_COST_PLASMACANNON: final int" style="text;align=left;verticalAlign=top;spacingLeft=4;spacingRight=4;overflow=hidden;rotatable=0;points=[[0,0.5],[1,0.5]];portConstraint=eastwest;rounded=0;shadow=0;html=0;" parent="tPDsgB1794YTJnG31M0B-0" vertex="1">
          <mxGeometry y="612" width="550" height="26" as="geometry" />
        </mxCell>
        <mxCell id="tPDsgB1794YTJnG31M0B-25" value="+ METAL_COST_UNITS =&#xa;{METAL_COST_LIGTHHUNTER,METAL_COST_HEAVYHUNTER,METAL_COST_BATTLESHIP,&#xa;METAL_COST_ARMOREDSHIP,METAL_COST_MISSILELAUNCHER,METAL_COST_IONCANNON,&#xa;METAL_COST_PLASMACANNON};: int[]" style="text;align=left;verticalAlign=top;spacingLeft=4;spacingRight=4;overflow=hidden;rotatable=0;points=[[0,0.5],[1,0.5]];portConstraint=eastwest;rounded=0;shadow=0;html=0;" parent="tPDsgB1794YTJnG31M0B-0" vertex="1">
          <mxGeometry y="638" width="550" height="66" as="geometry" />
        </mxCell>
        <mxCell id="tPDsgB1794YTJnG31M0B-27" value="+ DEUTERIUM_COST_UNITS =&#xa;{DEUTERIUM_COST_LIGTHHUNTER,DEUTERIUM_COST_HEAVYHUNTER,&#xa;DEUTERIUM_COST_BATTLESHIP,DEUTERIUM_COST_ARMOREDSHIP,&#xa;DEUTERIUM_COST_MISSILELAUNCHER,DEUTERIUM_COST_IONCANNON,&#xa;DEUTERIUM_COST_PLASMACANNON};: int[]" style="text;align=left;verticalAlign=top;spacingLeft=4;spacingRight=4;overflow=hidden;rotatable=0;points=[[0,0.5],[1,0.5]];portConstraint=eastwest;rounded=0;shadow=0;html=0;" parent="tPDsgB1794YTJnG31M0B-0" vertex="1">
          <mxGeometry y="704" width="550" height="80" as="geometry" />
        </mxCell>
        <mxCell id="tPDsgB1794YTJnG31M0B-28" value="+ BASE_DAMAGE_LIGTHHUNTER: final int" style="text;align=left;verticalAlign=top;spacingLeft=4;spacingRight=4;overflow=hidden;rotatable=0;points=[[0,0.5],[1,0.5]];portConstraint=eastwest;rounded=0;shadow=0;html=0;" parent="tPDsgB1794YTJnG31M0B-0" vertex="1">
          <mxGeometry y="784" width="550" height="30" as="geometry" />
        </mxCell>
        <mxCell id="tPDsgB1794YTJnG31M0B-29" value="+ BASE_DAMAGE_HEAVYHUNTER: final int" style="text;align=left;verticalAlign=top;spacingLeft=4;spacingRight=4;overflow=hidden;rotatable=0;points=[[0,0.5],[1,0.5]];portConstraint=eastwest;rounded=0;shadow=0;html=0;" parent="tPDsgB1794YTJnG31M0B-0" vertex="1">
          <mxGeometry y="814" width="550" height="30" as="geometry" />
        </mxCell>
        <mxCell id="tPDsgB1794YTJnG31M0B-30" value="+ BASE_DAMAGE_BATTLESHIP: final int" style="text;align=left;verticalAlign=top;spacingLeft=4;spacingRight=4;overflow=hidden;rotatable=0;points=[[0,0.5],[1,0.5]];portConstraint=eastwest;rounded=0;shadow=0;html=0;" parent="tPDsgB1794YTJnG31M0B-0" vertex="1">
          <mxGeometry y="844" width="550" height="30" as="geometry" />
        </mxCell>
        <mxCell id="tPDsgB1794YTJnG31M0B-31" value="+ BASE_DAMAGE_ARMOREDSHIP: final int" style="text;align=left;verticalAlign=top;spacingLeft=4;spacingRight=4;overflow=hidden;rotatable=0;points=[[0,0.5],[1,0.5]];portConstraint=eastwest;rounded=0;shadow=0;html=0;" parent="tPDsgB1794YTJnG31M0B-0" vertex="1">
          <mxGeometry y="874" width="550" height="30" as="geometry" />
        </mxCell>
        <mxCell id="tPDsgB1794YTJnG31M0B-32" value="+ BASE_DAMAGE_MISSILELAUNCHER: final int" style="text;align=left;verticalAlign=top;spacingLeft=4;spacingRight=4;overflow=hidden;rotatable=0;points=[[0,0.5],[1,0.5]];portConstraint=eastwest;rounded=0;shadow=0;html=0;" parent="tPDsgB1794YTJnG31M0B-0" vertex="1">
          <mxGeometry y="904" width="550" height="30" as="geometry" />
        </mxCell>
        <mxCell id="tPDsgB1794YTJnG31M0B-33" value="+ BASE_DAMAGE_IONCANNON: final int" style="text;align=left;verticalAlign=top;spacingLeft=4;spacingRight=4;overflow=hidden;rotatable=0;points=[[0,0.5],[1,0.5]];portConstraint=eastwest;rounded=0;shadow=0;html=0;" parent="tPDsgB1794YTJnG31M0B-0" vertex="1">
          <mxGeometry y="934" width="550" height="30" as="geometry" />
        </mxCell>
        <mxCell id="tPDsgB1794YTJnG31M0B-34" value="+ BASE_DAMAGE_PLASMACANNON: final int" style="text;align=left;verticalAlign=top;spacingLeft=4;spacingRight=4;overflow=hidden;rotatable=0;points=[[0,0.5],[1,0.5]];portConstraint=eastwest;rounded=0;shadow=0;html=0;" parent="tPDsgB1794YTJnG31M0B-0" vertex="1">
          <mxGeometry y="964" width="550" height="30" as="geometry" />
        </mxCell>
        <mxCell id="tPDsgB1794YTJnG31M0B-35" value="+ REDUCTION_DEFENSE_IONCANNON: final int" style="text;align=left;verticalAlign=top;spacingLeft=4;spacingRight=4;overflow=hidden;rotatable=0;points=[[0,0.5],[1,0.5]];portConstraint=eastwest;rounded=0;shadow=0;html=0;" parent="tPDsgB1794YTJnG31M0B-0" vertex="1">
          <mxGeometry y="994" width="550" height="30" as="geometry" />
        </mxCell>
        <mxCell id="tPDsgB1794YTJnG31M0B-36" value="+ ARMOR_LIGTHHUNTER: final int" style="text;align=left;verticalAlign=top;spacingLeft=4;spacingRight=4;overflow=hidden;rotatable=0;points=[[0,0.5],[1,0.5]];portConstraint=eastwest;rounded=0;shadow=0;html=0;" parent="tPDsgB1794YTJnG31M0B-0" vertex="1">
          <mxGeometry y="1024" width="550" height="30" as="geometry" />
        </mxCell>
        <mxCell id="tPDsgB1794YTJnG31M0B-37" value="+ ARMOR_HEAVYHUNTER: final int" style="text;align=left;verticalAlign=top;spacingLeft=4;spacingRight=4;overflow=hidden;rotatable=0;points=[[0,0.5],[1,0.5]];portConstraint=eastwest;rounded=0;shadow=0;html=0;" parent="tPDsgB1794YTJnG31M0B-0" vertex="1">
          <mxGeometry y="1054" width="550" height="30" as="geometry" />
        </mxCell>
        <mxCell id="tPDsgB1794YTJnG31M0B-38" value="+ ARMOR_BATTLESHIP: final int" style="text;align=left;verticalAlign=top;spacingLeft=4;spacingRight=4;overflow=hidden;rotatable=0;points=[[0,0.5],[1,0.5]];portConstraint=eastwest;rounded=0;shadow=0;html=0;" parent="tPDsgB1794YTJnG31M0B-0" vertex="1">
          <mxGeometry y="1084" width="550" height="30" as="geometry" />
        </mxCell>
        <mxCell id="tPDsgB1794YTJnG31M0B-39" value="+ ARMOR_ARMOREDSHIP: final int" style="text;align=left;verticalAlign=top;spacingLeft=4;spacingRight=4;overflow=hidden;rotatable=0;points=[[0,0.5],[1,0.5]];portConstraint=eastwest;rounded=0;shadow=0;html=0;" parent="tPDsgB1794YTJnG31M0B-0" vertex="1">
          <mxGeometry y="1114" width="550" height="30" as="geometry" />
        </mxCell>
        <mxCell id="tPDsgB1794YTJnG31M0B-40" value="+ ARMOR_MISSILELAUNCHER: final int" style="text;align=left;verticalAlign=top;spacingLeft=4;spacingRight=4;overflow=hidden;rotatable=0;points=[[0,0.5],[1,0.5]];portConstraint=eastwest;rounded=0;shadow=0;html=0;" parent="tPDsgB1794YTJnG31M0B-0" vertex="1">
          <mxGeometry y="1144" width="550" height="30" as="geometry" />
        </mxCell>
        <mxCell id="tPDsgB1794YTJnG31M0B-41" value="+ ARMOR_IONCANNON: final int" style="text;align=left;verticalAlign=top;spacingLeft=4;spacingRight=4;overflow=hidden;rotatable=0;points=[[0,0.5],[1,0.5]];portConstraint=eastwest;rounded=0;shadow=0;html=0;" parent="tPDsgB1794YTJnG31M0B-0" vertex="1">
          <mxGeometry y="1174" width="550" height="30" as="geometry" />
        </mxCell>
        <mxCell id="tPDsgB1794YTJnG31M0B-42" value="+ PLUS_ARMOR_LIGTHHUNTER_BY_TECHNOLOGY: final int" style="text;align=left;verticalAlign=top;spacingLeft=4;spacingRight=4;overflow=hidden;rotatable=0;points=[[0,0.5],[1,0.5]];portConstraint=eastwest;rounded=0;shadow=0;html=0;" parent="tPDsgB1794YTJnG31M0B-0" vertex="1">
          <mxGeometry y="1204" width="550" height="30" as="geometry" />
        </mxCell>
        <mxCell id="tPDsgB1794YTJnG31M0B-43" value="+ PLUS_ARMOR_HEAVYHUNTER_BY_TECHNOLOGY: final int" style="text;align=left;verticalAlign=top;spacingLeft=4;spacingRight=4;overflow=hidden;rotatable=0;points=[[0,0.5],[1,0.5]];portConstraint=eastwest;rounded=0;shadow=0;html=0;" parent="tPDsgB1794YTJnG31M0B-0" vertex="1">
          <mxGeometry y="1234" width="550" height="30" as="geometry" />
        </mxCell>
        <mxCell id="tPDsgB1794YTJnG31M0B-44" value="+ PLUS_ARMOR_BATTLESHIP_BY_TECHNOLOGY: final int" style="text;align=left;verticalAlign=top;spacingLeft=4;spacingRight=4;overflow=hidden;rotatable=0;points=[[0,0.5],[1,0.5]];portConstraint=eastwest;rounded=0;shadow=0;html=0;" parent="tPDsgB1794YTJnG31M0B-0" vertex="1">
          <mxGeometry y="1264" width="550" height="30" as="geometry" />
        </mxCell>
        <mxCell id="tPDsgB1794YTJnG31M0B-45" value="+ PLUS_ARMOR_ARMOREDSHIP_BY_TECHNOLOGY: final int" style="text;align=left;verticalAlign=top;spacingLeft=4;spacingRight=4;overflow=hidden;rotatable=0;points=[[0,0.5],[1,0.5]];portConstraint=eastwest;rounded=0;shadow=0;html=0;" parent="tPDsgB1794YTJnG31M0B-0" vertex="1">
          <mxGeometry y="1294" width="550" height="30" as="geometry" />
        </mxCell>
        <mxCell id="tPDsgB1794YTJnG31M0B-46" value="+ PLUS_ARMOR_MISSILELAUNCHER_BY_TECHNOLOGY: final int" style="text;align=left;verticalAlign=top;spacingLeft=4;spacingRight=4;overflow=hidden;rotatable=0;points=[[0,0.5],[1,0.5]];portConstraint=eastwest;rounded=0;shadow=0;html=0;" parent="tPDsgB1794YTJnG31M0B-0" vertex="1">
          <mxGeometry y="1324" width="550" height="30" as="geometry" />
        </mxCell>
        <mxCell id="tPDsgB1794YTJnG31M0B-47" value="+ PLUS_ARMOR_IONCANNON_BY_TECHNOLOGY: final int" style="text;align=left;verticalAlign=top;spacingLeft=4;spacingRight=4;overflow=hidden;rotatable=0;points=[[0,0.5],[1,0.5]];portConstraint=eastwest;rounded=0;shadow=0;html=0;" parent="tPDsgB1794YTJnG31M0B-0" vertex="1">
          <mxGeometry y="1354" width="550" height="30" as="geometry" />
        </mxCell>
        <mxCell id="tPDsgB1794YTJnG31M0B-48" value="+ PLUS_ARMOR_PLASMACANNON_BY_TECHNOLOGY: final int" style="text;align=left;verticalAlign=top;spacingLeft=4;spacingRight=4;overflow=hidden;rotatable=0;points=[[0,0.5],[1,0.5]];portConstraint=eastwest;rounded=0;shadow=0;html=0;" parent="tPDsgB1794YTJnG31M0B-0" vertex="1">
          <mxGeometry y="1384" width="550" height="30" as="geometry" />
        </mxCell>
        <mxCell id="tPDsgB1794YTJnG31M0B-49" value="+ PLUS_ATTACK_LIGTHHUNTER_BY_TECHNOLOGY: final int" style="text;align=left;verticalAlign=top;spacingLeft=4;spacingRight=4;overflow=hidden;rotatable=0;points=[[0,0.5],[1,0.5]];portConstraint=eastwest;rounded=0;shadow=0;html=0;" parent="tPDsgB1794YTJnG31M0B-0" vertex="1">
          <mxGeometry y="1414" width="550" height="30" as="geometry" />
        </mxCell>
        <mxCell id="tPDsgB1794YTJnG31M0B-50" value="+ PLUS_ATTACK_HEAVYHUNTER_BY_TECHNOLOGY: final int" style="text;align=left;verticalAlign=top;spacingLeft=4;spacingRight=4;overflow=hidden;rotatable=0;points=[[0,0.5],[1,0.5]];portConstraint=eastwest;rounded=0;shadow=0;html=0;" parent="tPDsgB1794YTJnG31M0B-0" vertex="1">
          <mxGeometry y="1444" width="550" height="30" as="geometry" />
        </mxCell>
        <mxCell id="tPDsgB1794YTJnG31M0B-51" value="+ PLUS_ATTACK_BATTLESHIP_BY_TECHNOLOGY: final int" style="text;align=left;verticalAlign=top;spacingLeft=4;spacingRight=4;overflow=hidden;rotatable=0;points=[[0,0.5],[1,0.5]];portConstraint=eastwest;rounded=0;shadow=0;html=0;" parent="tPDsgB1794YTJnG31M0B-0" vertex="1">
          <mxGeometry y="1474" width="550" height="30" as="geometry" />
        </mxCell>
        <mxCell id="tPDsgB1794YTJnG31M0B-52" value="+ PLUS_ATTACK_ARMOREDSHIP_BY_TECHNOLOGY: final int" style="text;align=left;verticalAlign=top;spacingLeft=4;spacingRight=4;overflow=hidden;rotatable=0;points=[[0,0.5],[1,0.5]];portConstraint=eastwest;rounded=0;shadow=0;html=0;" parent="tPDsgB1794YTJnG31M0B-0" vertex="1">
          <mxGeometry y="1504" width="550" height="30" as="geometry" />
        </mxCell>
        <mxCell id="tPDsgB1794YTJnG31M0B-53" value="+ PLUS_ATTACK_MISSILELAUNCHER_BY_TECHNOLOGY: final int" style="text;align=left;verticalAlign=top;spacingLeft=4;spacingRight=4;overflow=hidden;rotatable=0;points=[[0,0.5],[1,0.5]];portConstraint=eastwest;rounded=0;shadow=0;html=0;" parent="tPDsgB1794YTJnG31M0B-0" vertex="1">
          <mxGeometry y="1534" width="550" height="30" as="geometry" />
        </mxCell>
        <mxCell id="tPDsgB1794YTJnG31M0B-54" value="+ PLUS_ATTACK_IONCANNON_BY_TECHNOLOGY: final int" style="text;align=left;verticalAlign=top;spacingLeft=4;spacingRight=4;overflow=hidden;rotatable=0;points=[[0,0.5],[1,0.5]];portConstraint=eastwest;rounded=0;shadow=0;html=0;" parent="tPDsgB1794YTJnG31M0B-0" vertex="1">
          <mxGeometry y="1564" width="550" height="30" as="geometry" />
        </mxCell>
        <mxCell id="tPDsgB1794YTJnG31M0B-55" value="+ PLUS_ATTACK_PLASMACANNON_BY_TECHNOLOGY: final int" style="text;align=left;verticalAlign=top;spacingLeft=4;spacingRight=4;overflow=hidden;rotatable=0;points=[[0,0.5],[1,0.5]];portConstraint=eastwest;rounded=0;shadow=0;html=0;" parent="tPDsgB1794YTJnG31M0B-0" vertex="1">
          <mxGeometry y="1594" width="550" height="30" as="geometry" />
        </mxCell>
        <mxCell id="tPDsgB1794YTJnG31M0B-56" value="+ CHANCE_GENERATNG_WASTE_LIGTHHUNTER: final int" style="text;align=left;verticalAlign=top;spacingLeft=4;spacingRight=4;overflow=hidden;rotatable=0;points=[[0,0.5],[1,0.5]];portConstraint=eastwest;rounded=0;shadow=0;html=0;" parent="tPDsgB1794YTJnG31M0B-0" vertex="1">
          <mxGeometry y="1624" width="550" height="30" as="geometry" />
        </mxCell>
        <mxCell id="tPDsgB1794YTJnG31M0B-57" value="+ CHANCE_GENERATNG_WASTE_HEAVYHUNTER: final int" style="text;align=left;verticalAlign=top;spacingLeft=4;spacingRight=4;overflow=hidden;rotatable=0;points=[[0,0.5],[1,0.5]];portConstraint=eastwest;rounded=0;shadow=0;html=0;" parent="tPDsgB1794YTJnG31M0B-0" vertex="1">
          <mxGeometry y="1654" width="550" height="30" as="geometry" />
        </mxCell>
        <mxCell id="tPDsgB1794YTJnG31M0B-58" value="+ CHANCE_GENERATNG_WASTE_BATTLESHIP: final int" style="text;align=left;verticalAlign=top;spacingLeft=4;spacingRight=4;overflow=hidden;rotatable=0;points=[[0,0.5],[1,0.5]];portConstraint=eastwest;rounded=0;shadow=0;html=0;" parent="tPDsgB1794YTJnG31M0B-0" vertex="1">
          <mxGeometry y="1684" width="550" height="30" as="geometry" />
        </mxCell>
        <mxCell id="tPDsgB1794YTJnG31M0B-59" value="+ CHANCE_GENERATNG_WASTE_ARMOREDSHIP: final int" style="text;align=left;verticalAlign=top;spacingLeft=4;spacingRight=4;overflow=hidden;rotatable=0;points=[[0,0.5],[1,0.5]];portConstraint=eastwest;rounded=0;shadow=0;html=0;" parent="tPDsgB1794YTJnG31M0B-0" vertex="1">
          <mxGeometry y="1714" width="550" height="30" as="geometry" />
        </mxCell>
        <mxCell id="tPDsgB1794YTJnG31M0B-60" value="+ CHANCE_GENERATNG_WASTE_MISSILELAUNCHER: final int" style="text;align=left;verticalAlign=top;spacingLeft=4;spacingRight=4;overflow=hidden;rotatable=0;points=[[0,0.5],[1,0.5]];portConstraint=eastwest;rounded=0;shadow=0;html=0;" parent="tPDsgB1794YTJnG31M0B-0" vertex="1">
          <mxGeometry y="1744" width="550" height="30" as="geometry" />
        </mxCell>
        <mxCell id="tPDsgB1794YTJnG31M0B-61" value="+ CHANCE_GENERATNG_WASTE_IONCANNON: final int" style="text;align=left;verticalAlign=top;spacingLeft=4;spacingRight=4;overflow=hidden;rotatable=0;points=[[0,0.5],[1,0.5]];portConstraint=eastwest;rounded=0;shadow=0;html=0;" parent="tPDsgB1794YTJnG31M0B-0" vertex="1">
          <mxGeometry y="1774" width="550" height="30" as="geometry" />
        </mxCell>
        <mxCell id="tPDsgB1794YTJnG31M0B-62" value="+ CHANCE_GENERATNG_WASTE_PLASMACANNON: final int" style="text;align=left;verticalAlign=top;spacingLeft=4;spacingRight=4;overflow=hidden;rotatable=0;points=[[0,0.5],[1,0.5]];portConstraint=eastwest;rounded=0;shadow=0;html=0;" parent="tPDsgB1794YTJnG31M0B-0" vertex="1">
          <mxGeometry y="1804" width="550" height="30" as="geometry" />
        </mxCell>
        <mxCell id="tPDsgB1794YTJnG31M0B-63" value="+ CHANCE_ATTACK_AGAIN_LIGTHHUNTER: final int" style="text;align=left;verticalAlign=top;spacingLeft=4;spacingRight=4;overflow=hidden;rotatable=0;points=[[0,0.5],[1,0.5]];portConstraint=eastwest;rounded=0;shadow=0;html=0;" parent="tPDsgB1794YTJnG31M0B-0" vertex="1">
          <mxGeometry y="1834" width="550" height="30" as="geometry" />
        </mxCell>
        <mxCell id="tPDsgB1794YTJnG31M0B-64" value="+ CHANCE_ATTACK_AGAIN_HEAVYHUNTER: final int" style="text;align=left;verticalAlign=top;spacingLeft=4;spacingRight=4;overflow=hidden;rotatable=0;points=[[0,0.5],[1,0.5]];portConstraint=eastwest;rounded=0;shadow=0;html=0;" parent="tPDsgB1794YTJnG31M0B-0" vertex="1">
          <mxGeometry y="1864" width="550" height="30" as="geometry" />
        </mxCell>
        <mxCell id="tPDsgB1794YTJnG31M0B-65" value="+ CHANCE_ATTACK_AGAIN_BATTLESHIP: final int" style="text;align=left;verticalAlign=top;spacingLeft=4;spacingRight=4;overflow=hidden;rotatable=0;points=[[0,0.5],[1,0.5]];portConstraint=eastwest;rounded=0;shadow=0;html=0;" parent="tPDsgB1794YTJnG31M0B-0" vertex="1">
          <mxGeometry y="1894" width="550" height="30" as="geometry" />
        </mxCell>
        <mxCell id="tPDsgB1794YTJnG31M0B-66" value="+ CHANCE_ATTACK_AGAIN_ARMOREDSHIP: final int" style="text;align=left;verticalAlign=top;spacingLeft=4;spacingRight=4;overflow=hidden;rotatable=0;points=[[0,0.5],[1,0.5]];portConstraint=eastwest;rounded=0;shadow=0;html=0;" parent="tPDsgB1794YTJnG31M0B-0" vertex="1">
          <mxGeometry y="1924" width="550" height="30" as="geometry" />
        </mxCell>
        <mxCell id="tPDsgB1794YTJnG31M0B-67" value="+ CHANCE_ATTACK_AGAIN_MISSILELAUNCHER: final int" style="text;align=left;verticalAlign=top;spacingLeft=4;spacingRight=4;overflow=hidden;rotatable=0;points=[[0,0.5],[1,0.5]];portConstraint=eastwest;rounded=0;shadow=0;html=0;" parent="tPDsgB1794YTJnG31M0B-0" vertex="1">
          <mxGeometry y="1954" width="550" height="30" as="geometry" />
        </mxCell>
        <mxCell id="tPDsgB1794YTJnG31M0B-68" value="+ CHANCE_ATTACK_AGAIN_IONCANNON: final int" style="text;align=left;verticalAlign=top;spacingLeft=4;spacingRight=4;overflow=hidden;rotatable=0;points=[[0,0.5],[1,0.5]];portConstraint=eastwest;rounded=0;shadow=0;html=0;" parent="tPDsgB1794YTJnG31M0B-0" vertex="1">
          <mxGeometry y="1984" width="550" height="30" as="geometry" />
        </mxCell>
        <mxCell id="tPDsgB1794YTJnG31M0B-69" value="+ CHANCE_ATTACK_AGAIN_PLASMACANNON: final int" style="text;align=left;verticalAlign=top;spacingLeft=4;spacingRight=4;overflow=hidden;rotatable=0;points=[[0,0.5],[1,0.5]];portConstraint=eastwest;rounded=0;shadow=0;html=0;" parent="tPDsgB1794YTJnG31M0B-0" vertex="1">
          <mxGeometry y="2014" width="550" height="30" as="geometry" />
        </mxCell>
        <mxCell id="tPDsgB1794YTJnG31M0B-70" value="+ CHANCE_ATTACK_PLANET_UNITS: final int[]" style="text;align=left;verticalAlign=top;spacingLeft=4;spacingRight=4;overflow=hidden;rotatable=0;points=[[0,0.5],[1,0.5]];portConstraint=eastwest;rounded=0;shadow=0;html=0;" parent="tPDsgB1794YTJnG31M0B-0" vertex="1">
          <mxGeometry y="2044" width="550" height="30" as="geometry" />
        </mxCell>
        <mxCell id="tPDsgB1794YTJnG31M0B-71" value="+ CHANCE_ATTACK_ENEMY_UNITS: final int[]" style="text;align=left;verticalAlign=top;spacingLeft=4;spacingRight=4;overflow=hidden;rotatable=0;points=[[0,0.5],[1,0.5]];portConstraint=eastwest;rounded=0;shadow=0;html=0;" parent="tPDsgB1794YTJnG31M0B-0" vertex="1">
          <mxGeometry y="2074" width="550" height="30" as="geometry" />
        </mxCell>
        <mxCell id="tPDsgB1794YTJnG31M0B-72" value="+ PERCENTATGE_WASTE: final int" style="text;align=left;verticalAlign=top;spacingLeft=4;spacingRight=4;overflow=hidden;rotatable=0;points=[[0,0.5],[1,0.5]];portConstraint=eastwest;rounded=0;shadow=0;html=0;" parent="tPDsgB1794YTJnG31M0B-0" vertex="1">
          <mxGeometry y="2104" width="550" height="30" as="geometry" />
        </mxCell>
        <mxCell id="tPDsgB1794YTJnG31M0B-73" value="" style="endArrow=blockThin;html=1;rounded=0;exitX=0.5;exitY=0;exitDx=0;exitDy=0;entryX=0.5;entryY=1;entryDx=0;entryDy=0;dashed=1;dashPattern=8 8;endFill=0;" parent="WIyWlLk6GJQsqaUBKTNV-1" source="YW5f9N3jxOXYz25lWCUv-4" target="zkfFHV4jXpPFQw0GAbJ--6" edge="1">
          <mxGeometry width="50" height="50" relative="1" as="geometry">
            <mxPoint x="-350" y="1040" as="sourcePoint" />
            <mxPoint x="-190" y="850" as="targetPoint" />
          </mxGeometry>
        </mxCell>
        <mxCell id="tPDsgB1794YTJnG31M0B-74" value="" style="endArrow=blockThin;html=1;rounded=0;exitX=0.238;exitY=0;exitDx=0;exitDy=0;exitPerimeter=0;dashed=1;dashPattern=12 12;endFill=0;" parent="WIyWlLk6GJQsqaUBKTNV-1" source="tPDsgB1794YTJnG31M0B-0" edge="1">
          <mxGeometry width="50" height="50" relative="1" as="geometry">
            <mxPoint x="-130" y="830" as="sourcePoint" />
            <mxPoint x="350" y="810" as="targetPoint" />
          </mxGeometry>
        </mxCell>
        <mxCell id="tPDsgB1794YTJnG31M0B-75" value="" style="endArrow=none;html=1;rounded=0;endFill=0;startArrow=classic;startFill=1;" parent="WIyWlLk6GJQsqaUBKTNV-1" edge="1">
          <mxGeometry width="50" height="50" relative="1" as="geometry">
            <mxPoint x="359.41" y="694" as="sourcePoint" />
            <mxPoint x="359.41" y="648" as="targetPoint" />
          </mxGeometry>
        </mxCell>
        <mxCell id="tPDsgB1794YTJnG31M0B-76" value="" style="endArrow=none;html=1;rounded=0;" parent="WIyWlLk6GJQsqaUBKTNV-1" edge="1">
          <mxGeometry width="50" height="50" relative="1" as="geometry">
            <mxPoint x="-180.58999999999997" y="648" as="sourcePoint" />
            <mxPoint x="879.4100000000001" y="648" as="targetPoint" />
          </mxGeometry>
        </mxCell>
        <mxCell id="tPDsgB1794YTJnG31M0B-77" value="" style="endArrow=none;html=1;rounded=0;entryX=0.47;entryY=1.109;entryDx=0;entryDy=0;entryPerimeter=0;endFill=0;" parent="WIyWlLk6GJQsqaUBKTNV-1" edge="1">
          <mxGeometry width="50" height="50" relative="1" as="geometry">
            <mxPoint x="-180.58999999999997" y="648" as="sourcePoint" />
            <mxPoint x="-179.5900000000002" y="590.8339999999998" as="targetPoint" />
          </mxGeometry>
        </mxCell>
        <mxCell id="tPDsgB1794YTJnG31M0B-78" value="" style="endArrow=none;html=1;rounded=0;endFill=0;" parent="WIyWlLk6GJQsqaUBKTNV-1" edge="1">
          <mxGeometry width="50" height="50" relative="1" as="geometry">
            <mxPoint x="179.41000000000003" y="648" as="sourcePoint" />
            <mxPoint x="179.41000000000003" y="588" as="targetPoint" />
          </mxGeometry>
        </mxCell>
        <mxCell id="tPDsgB1794YTJnG31M0B-79" value="" style="endArrow=none;html=1;rounded=0;endFill=0;" parent="WIyWlLk6GJQsqaUBKTNV-1" edge="1">
          <mxGeometry width="50" height="50" relative="1" as="geometry">
            <mxPoint x="539.4100000000001" y="648" as="sourcePoint" />
            <mxPoint x="539.4100000000001" y="588" as="targetPoint" />
          </mxGeometry>
        </mxCell>
        <mxCell id="tPDsgB1794YTJnG31M0B-80" value="" style="endArrow=none;html=1;rounded=0;endFill=0;entryX=0.511;entryY=1.043;entryDx=0;entryDy=0;entryPerimeter=0;" parent="WIyWlLk6GJQsqaUBKTNV-1" target="5EO1GUWcIYaJtxIAbVqV-69" edge="1">
          <mxGeometry width="50" height="50" relative="1" as="geometry">
            <mxPoint x="879.4100000000001" y="648" as="sourcePoint" />
            <mxPoint x="880" y="590" as="targetPoint" />
          </mxGeometry>
        </mxCell>
        <mxCell id="tPDsgB1794YTJnG31M0B-83" value="" style="endArrow=classic;html=1;rounded=0;exitX=0.5;exitY=1;exitDx=0;exitDy=0;entryX=0.5;entryY=0;entryDx=0;entryDy=0;" parent="WIyWlLk6GJQsqaUBKTNV-1" source="YW5f9N3jxOXYz25lWCUv-65" target="5EO1GUWcIYaJtxIAbVqV-39" edge="1">
          <mxGeometry width="50" height="50" relative="1" as="geometry">
            <mxPoint x="880" y="1390" as="sourcePoint" />
            <mxPoint x="880" y="1450" as="targetPoint" />
          </mxGeometry>
        </mxCell>
        <mxCell id="tPDsgB1794YTJnG31M0B-84" value="" style="endArrow=none;html=1;rounded=0;" parent="WIyWlLk6GJQsqaUBKTNV-1" edge="1">
          <mxGeometry width="50" height="50" relative="1" as="geometry">
            <mxPoint x="380" y="1420" as="sourcePoint" />
            <mxPoint x="1080" y="1420" as="targetPoint" />
          </mxGeometry>
        </mxCell>
        <mxCell id="tPDsgB1794YTJnG31M0B-86" value="" style="endArrow=classic;html=1;rounded=0;" parent="WIyWlLk6GJQsqaUBKTNV-1" edge="1">
          <mxGeometry width="50" height="50" relative="1" as="geometry">
            <mxPoint x="1080" y="1420" as="sourcePoint" />
            <mxPoint x="1080" y="1450" as="targetPoint" />
          </mxGeometry>
        </mxCell>
        <mxCell id="5EO1GUWcIYaJtxIAbVqV-20" value="" style="endArrow=classic;html=1;rounded=0;exitX=0;exitY=0.5;exitDx=0;exitDy=0;entryX=1;entryY=0.5;entryDx=0;entryDy=0;" parent="WIyWlLk6GJQsqaUBKTNV-1" edge="1" target="5EO1GUWcIYaJtxIAbVqV-24" source="5EO1GUWcIYaJtxIAbVqV-33">
          <mxGeometry width="50" height="50" relative="1" as="geometry">
            <mxPoint x="1690" y="880.0039999999999" as="sourcePoint" />
            <mxPoint x="1729.79" y="880.54" as="targetPoint" />
          </mxGeometry>
        </mxCell>
        <mxCell id="5EO1GUWcIYaJtxIAbVqV-21" value="" style="endArrow=classic;html=1;rounded=0;exitX=0.444;exitY=0;exitDx=0;exitDy=0;exitPerimeter=0;" parent="WIyWlLk6GJQsqaUBKTNV-1" edge="1">
          <mxGeometry width="50" height="50" relative="1" as="geometry">
            <mxPoint x="1911.04" y="692" as="sourcePoint" />
            <mxPoint x="1840" y="622" as="targetPoint" />
          </mxGeometry>
        </mxCell>
        <mxCell id="5EO1GUWcIYaJtxIAbVqV-22" value="Exception" style="swimlane;fontStyle=0;align=center;verticalAlign=top;childLayout=stackLayout;horizontal=1;startSize=26;horizontalStack=0;resizeParent=1;resizeLast=0;collapsible=1;marginBottom=0;rounded=0;shadow=0;strokeWidth=1;" parent="WIyWlLk6GJQsqaUBKTNV-1" vertex="1">
          <mxGeometry x="1740" y="592" width="160" height="32" as="geometry">
            <mxRectangle x="130" y="380" width="160" height="26" as="alternateBounds" />
          </mxGeometry>
        </mxCell>
        <mxCell id="5EO1GUWcIYaJtxIAbVqV-26" value="&lt;div&gt;«enum»&lt;/div&gt;&lt;div&gt;UnitType&lt;br&gt;&lt;/div&gt;" style="swimlane;fontStyle=1;align=center;verticalAlign=top;childLayout=stackLayout;horizontal=1;startSize=40;horizontalStack=0;resizeParent=1;resizeParentMax=0;resizeLast=0;collapsible=1;marginBottom=0;whiteSpace=wrap;html=1;fillColor=#d5e8d4;strokeColor=#82b366;" parent="WIyWlLk6GJQsqaUBKTNV-1" vertex="1">
          <mxGeometry x="1750.79" y="808" width="210" height="222" as="geometry" />
        </mxCell>
        <mxCell id="5EO1GUWcIYaJtxIAbVqV-27" value="+Army[0]:ArrayList&amp;lt;LigthHunter&amp;gt; " style="text;strokeColor=none;fillColor=none;align=left;verticalAlign=top;spacingLeft=4;spacingRight=4;overflow=hidden;rotatable=0;points=[[0,0.5],[1,0.5]];portConstraint=eastwest;whiteSpace=wrap;html=1;" parent="5EO1GUWcIYaJtxIAbVqV-26" vertex="1">
          <mxGeometry y="40" width="210" height="26" as="geometry" />
        </mxCell>
        <mxCell id="5EO1GUWcIYaJtxIAbVqV-33" value="+Army[1]:ArrayList&amp;lt;HeavyHunter&amp;gt; " style="text;strokeColor=none;fillColor=none;align=left;verticalAlign=top;spacingLeft=4;spacingRight=4;overflow=hidden;rotatable=0;points=[[0,0.5],[1,0.5]];portConstraint=eastwest;whiteSpace=wrap;html=1;" parent="5EO1GUWcIYaJtxIAbVqV-26" vertex="1">
          <mxGeometry y="66" width="210" height="26" as="geometry" />
        </mxCell>
        <mxCell id="5EO1GUWcIYaJtxIAbVqV-34" value="+Army[2]:ArrayList&amp;lt;BattleShip&amp;gt; " style="text;strokeColor=none;fillColor=none;align=left;verticalAlign=top;spacingLeft=4;spacingRight=4;overflow=hidden;rotatable=0;points=[[0,0.5],[1,0.5]];portConstraint=eastwest;whiteSpace=wrap;html=1;" parent="5EO1GUWcIYaJtxIAbVqV-26" vertex="1">
          <mxGeometry y="92" width="210" height="26" as="geometry" />
        </mxCell>
        <mxCell id="5EO1GUWcIYaJtxIAbVqV-35" value="+Army[3]:ArrayList&amp;lt;ArmoredShip&amp;gt; " style="text;strokeColor=none;fillColor=none;align=left;verticalAlign=top;spacingLeft=4;spacingRight=4;overflow=hidden;rotatable=0;points=[[0,0.5],[1,0.5]];portConstraint=eastwest;whiteSpace=wrap;html=1;" parent="5EO1GUWcIYaJtxIAbVqV-26" vertex="1">
          <mxGeometry y="118" width="210" height="26" as="geometry" />
        </mxCell>
        <mxCell id="5EO1GUWcIYaJtxIAbVqV-36" value="+Army[4]:ArrayList&amp;lt;MissileLauncher&amp;gt; " style="text;strokeColor=none;fillColor=none;align=left;verticalAlign=top;spacingLeft=4;spacingRight=4;overflow=hidden;rotatable=0;points=[[0,0.5],[1,0.5]];portConstraint=eastwest;whiteSpace=wrap;html=1;" parent="5EO1GUWcIYaJtxIAbVqV-26" vertex="1">
          <mxGeometry y="144" width="210" height="26" as="geometry" />
        </mxCell>
        <mxCell id="5EO1GUWcIYaJtxIAbVqV-37" value="+Army[5]:ArrayList&amp;lt;IonCannon&amp;gt; " style="text;strokeColor=none;fillColor=none;align=left;verticalAlign=top;spacingLeft=4;spacingRight=4;overflow=hidden;rotatable=0;points=[[0,0.5],[1,0.5]];portConstraint=eastwest;whiteSpace=wrap;html=1;" parent="5EO1GUWcIYaJtxIAbVqV-26" vertex="1">
          <mxGeometry y="170" width="210" height="26" as="geometry" />
        </mxCell>
        <mxCell id="5EO1GUWcIYaJtxIAbVqV-38" value="+Army[6]:ArrayList&amp;lt;PlasmaCannon&amp;gt; " style="text;strokeColor=none;fillColor=none;align=left;verticalAlign=top;spacingLeft=4;spacingRight=4;overflow=hidden;rotatable=0;points=[[0,0.5],[1,0.5]];portConstraint=eastwest;whiteSpace=wrap;html=1;" parent="5EO1GUWcIYaJtxIAbVqV-26" vertex="1">
          <mxGeometry y="196" width="210" height="26" as="geometry" />
        </mxCell>
        <mxCell id="5EO1GUWcIYaJtxIAbVqV-39" value="MissileLauncher" style="swimlane;fontStyle=0;align=center;verticalAlign=top;childLayout=stackLayout;horizontal=1;startSize=26;horizontalStack=0;resizeParent=1;resizeLast=0;collapsible=1;marginBottom=0;rounded=0;shadow=0;strokeWidth=1;" parent="WIyWlLk6GJQsqaUBKTNV-1" vertex="1">
          <mxGeometry x="580" y="1450" width="300" height="52" as="geometry">
            <mxRectangle x="130" y="380" width="160" height="26" as="alternateBounds" />
          </mxGeometry>
        </mxCell>
        <mxCell id="5EO1GUWcIYaJtxIAbVqV-40" value="+ MissileLauncher (armor: int, baseDamage:int)" style="text;align=left;verticalAlign=top;spacingLeft=4;spacingRight=4;overflow=hidden;rotatable=0;points=[[0,0.5],[1,0.5]];portConstraint=eastwest;rounded=0;shadow=0;html=0;" parent="5EO1GUWcIYaJtxIAbVqV-39" vertex="1">
          <mxGeometry y="26" width="300" height="26" as="geometry" />
        </mxCell>
        <mxCell id="5EO1GUWcIYaJtxIAbVqV-52" value="PlasmaCannon" style="swimlane;fontStyle=0;align=center;verticalAlign=top;childLayout=stackLayout;horizontal=1;startSize=26;horizontalStack=0;resizeParent=1;resizeLast=0;collapsible=1;marginBottom=0;rounded=0;shadow=0;strokeWidth=1;" parent="WIyWlLk6GJQsqaUBKTNV-1" vertex="1">
          <mxGeometry x="920" y="1450" width="300" height="52" as="geometry">
            <mxRectangle x="130" y="380" width="160" height="26" as="alternateBounds" />
          </mxGeometry>
        </mxCell>
        <mxCell id="5EO1GUWcIYaJtxIAbVqV-53" value="+ PlasmaCannon(armor: int, baseDamage:int)" style="text;align=left;verticalAlign=top;spacingLeft=4;spacingRight=4;overflow=hidden;rotatable=0;points=[[0,0.5],[1,0.5]];portConstraint=eastwest;rounded=0;shadow=0;html=0;" parent="5EO1GUWcIYaJtxIAbVqV-52" vertex="1">
          <mxGeometry y="26" width="300" height="26" as="geometry" />
        </mxCell>
        <mxCell id="5EO1GUWcIYaJtxIAbVqV-58" value="HeavyHunter" style="swimlane;fontStyle=0;align=center;verticalAlign=top;childLayout=stackLayout;horizontal=1;startSize=26;horizontalStack=0;resizeParent=1;resizeLast=0;collapsible=1;marginBottom=0;rounded=0;shadow=0;strokeWidth=1;" parent="WIyWlLk6GJQsqaUBKTNV-1" vertex="1">
          <mxGeometry x="50" y="510" width="300" height="80" as="geometry">
            <mxRectangle x="130" y="380" width="160" height="26" as="alternateBounds" />
          </mxGeometry>
        </mxCell>
        <mxCell id="5EO1GUWcIYaJtxIAbVqV-59" value="+ HeavyHunter(int armor, int baseDamage)" style="text;align=left;verticalAlign=top;spacingLeft=4;spacingRight=4;overflow=hidden;rotatable=0;points=[[0,0.5],[1,0.5]];portConstraint=eastwest;rounded=0;shadow=0;html=0;" parent="5EO1GUWcIYaJtxIAbVqV-58" vertex="1">
          <mxGeometry y="26" width="300" height="26" as="geometry" />
        </mxCell>
        <mxCell id="5EO1GUWcIYaJtxIAbVqV-60" value="+ HeavyHunter()" style="text;align=left;verticalAlign=top;spacingLeft=4;spacingRight=4;overflow=hidden;rotatable=0;points=[[0,0.5],[1,0.5]];portConstraint=eastwest;rounded=0;shadow=0;html=0;" parent="5EO1GUWcIYaJtxIAbVqV-58" vertex="1">
          <mxGeometry y="52" width="300" height="26" as="geometry" />
        </mxCell>
        <mxCell id="5EO1GUWcIYaJtxIAbVqV-61" value="BattleShip" style="swimlane;fontStyle=0;align=center;verticalAlign=top;childLayout=stackLayout;horizontal=1;startSize=26;horizontalStack=0;resizeParent=1;resizeLast=0;collapsible=1;marginBottom=0;rounded=0;shadow=0;strokeWidth=1;" parent="WIyWlLk6GJQsqaUBKTNV-1" vertex="1">
          <mxGeometry x="400" y="508" width="300" height="80" as="geometry">
            <mxRectangle x="130" y="380" width="160" height="26" as="alternateBounds" />
          </mxGeometry>
        </mxCell>
        <mxCell id="5EO1GUWcIYaJtxIAbVqV-62" value="+ BattleShip(int armor, int baseDamage)" style="text;align=left;verticalAlign=top;spacingLeft=4;spacingRight=4;overflow=hidden;rotatable=0;points=[[0,0.5],[1,0.5]];portConstraint=eastwest;rounded=0;shadow=0;html=0;" parent="5EO1GUWcIYaJtxIAbVqV-61" vertex="1">
          <mxGeometry y="26" width="300" height="26" as="geometry" />
        </mxCell>
        <mxCell id="5EO1GUWcIYaJtxIAbVqV-63" value="+ BattleShip()" style="text;align=left;verticalAlign=top;spacingLeft=4;spacingRight=4;overflow=hidden;rotatable=0;points=[[0,0.5],[1,0.5]];portConstraint=eastwest;rounded=0;shadow=0;html=0;" parent="5EO1GUWcIYaJtxIAbVqV-61" vertex="1">
          <mxGeometry y="52" width="300" height="26" as="geometry" />
        </mxCell>
        <mxCell id="5EO1GUWcIYaJtxIAbVqV-64" value="LigthHunter" style="swimlane;fontStyle=0;align=center;verticalAlign=top;childLayout=stackLayout;horizontal=1;startSize=26;horizontalStack=0;resizeParent=1;resizeLast=0;collapsible=1;marginBottom=0;rounded=0;shadow=0;strokeWidth=1;" parent="WIyWlLk6GJQsqaUBKTNV-1" vertex="1">
          <mxGeometry x="-321" y="512" width="300" height="80" as="geometry">
            <mxRectangle x="130" y="380" width="160" height="26" as="alternateBounds" />
          </mxGeometry>
        </mxCell>
        <mxCell id="5EO1GUWcIYaJtxIAbVqV-65" value="+ LigthHunter(armor: int, baseDamage:int)" style="text;align=left;verticalAlign=top;spacingLeft=4;spacingRight=4;overflow=hidden;rotatable=0;points=[[0,0.5],[1,0.5]];portConstraint=eastwest;rounded=0;shadow=0;html=0;" parent="5EO1GUWcIYaJtxIAbVqV-64" vertex="1">
          <mxGeometry y="26" width="300" height="26" as="geometry" />
        </mxCell>
        <mxCell id="5EO1GUWcIYaJtxIAbVqV-66" value="+ LigthHunter()" style="text;align=left;verticalAlign=top;spacingLeft=4;spacingRight=4;overflow=hidden;rotatable=0;points=[[0,0.5],[1,0.5]];portConstraint=eastwest;rounded=0;shadow=0;html=0;" parent="5EO1GUWcIYaJtxIAbVqV-64" vertex="1">
          <mxGeometry y="52" width="300" height="26" as="geometry" />
        </mxCell>
        <mxCell id="5EO1GUWcIYaJtxIAbVqV-67" value="ArmoredShip" style="swimlane;fontStyle=0;align=center;verticalAlign=top;childLayout=stackLayout;horizontal=1;startSize=26;horizontalStack=0;resizeParent=1;resizeLast=0;collapsible=1;marginBottom=0;rounded=0;shadow=0;strokeWidth=1;" parent="WIyWlLk6GJQsqaUBKTNV-1" vertex="1">
          <mxGeometry x="727" y="508" width="300" height="80" as="geometry">
            <mxRectangle x="130" y="380" width="160" height="26" as="alternateBounds" />
          </mxGeometry>
        </mxCell>
        <mxCell id="5EO1GUWcIYaJtxIAbVqV-68" value="+ ArmoredShip(int armor, int baseDamage)" style="text;align=left;verticalAlign=top;spacingLeft=4;spacingRight=4;overflow=hidden;rotatable=0;points=[[0,0.5],[1,0.5]];portConstraint=eastwest;rounded=0;shadow=0;html=0;" parent="5EO1GUWcIYaJtxIAbVqV-67" vertex="1">
          <mxGeometry y="26" width="300" height="26" as="geometry" />
        </mxCell>
        <mxCell id="5EO1GUWcIYaJtxIAbVqV-69" value="+ ArmoredShip()" style="text;align=left;verticalAlign=top;spacingLeft=4;spacingRight=4;overflow=hidden;rotatable=0;points=[[0,0.5],[1,0.5]];portConstraint=eastwest;rounded=0;shadow=0;html=0;" parent="5EO1GUWcIYaJtxIAbVqV-67" vertex="1">
          <mxGeometry y="52" width="300" height="26" as="geometry" />
        </mxCell>
        <mxCell id="5EO1GUWcIYaJtxIAbVqV-71" value="" style="endArrow=classic;html=1;rounded=0;endFill=1;entryX=0.689;entryY=-0.037;entryDx=0;entryDy=0;entryPerimeter=0;" parent="WIyWlLk6GJQsqaUBKTNV-1" source="YW5f9N3jxOXYz25lWCUv-12" edge="1" target="YW5f9N3jxOXYz25lWCUv-65">
          <mxGeometry width="50" height="50" relative="1" as="geometry">
            <mxPoint x="886.09" y="1192" as="sourcePoint" />
            <mxPoint x="886" y="1270" as="targetPoint" />
          </mxGeometry>
        </mxCell>
        <mxCell id="5EO1GUWcIYaJtxIAbVqV-72" value="" style="endArrow=classic;html=1;rounded=0;entryX=0.38;entryY=-0.031;entryDx=0;entryDy=0;entryPerimeter=0;" parent="WIyWlLk6GJQsqaUBKTNV-1" target="5EO1GUWcIYaJtxIAbVqV-55" edge="1">
          <mxGeometry width="50" height="50" relative="1" as="geometry">
            <mxPoint x="380" y="1420" as="sourcePoint" />
            <mxPoint x="380.3000000000002" y="1454.4" as="targetPoint" />
          </mxGeometry>
        </mxCell>
        <mxCell id="5EO1GUWcIYaJtxIAbVqV-55" value="IonCannon" style="swimlane;fontStyle=0;align=center;verticalAlign=top;childLayout=stackLayout;horizontal=1;startSize=26;horizontalStack=0;resizeParent=1;resizeLast=0;collapsible=1;marginBottom=0;rounded=0;shadow=0;strokeWidth=1;" parent="WIyWlLk6GJQsqaUBKTNV-1" vertex="1">
          <mxGeometry x="267" y="1450" width="300" height="52" as="geometry">
            <mxRectangle x="130" y="380" width="160" height="26" as="alternateBounds" />
          </mxGeometry>
        </mxCell>
        <mxCell id="5EO1GUWcIYaJtxIAbVqV-56" value="+ IonCannon(armor: int, baseDamage:int)" style="text;align=left;verticalAlign=top;spacingLeft=4;spacingRight=4;overflow=hidden;rotatable=0;points=[[0,0.5],[1,0.5]];portConstraint=eastwest;rounded=0;shadow=0;html=0;" parent="5EO1GUWcIYaJtxIAbVqV-55" vertex="1">
          <mxGeometry y="26" width="300" height="26" as="geometry" />
        </mxCell>
        <mxCell id="5EO1GUWcIYaJtxIAbVqV-73" value="Battle" style="swimlane;fontStyle=1;align=center;verticalAlign=top;childLayout=stackLayout;horizontal=1;startSize=30;horizontalStack=0;resizeParent=1;resizeLast=0;collapsible=1;marginBottom=0;rounded=0;shadow=0;strokeWidth=1;" parent="WIyWlLk6GJQsqaUBKTNV-1" vertex="1">
          <mxGeometry x="1380" y="1260" width="300" height="394" as="geometry">
            <mxRectangle x="130" y="380" width="160" height="26" as="alternateBounds" />
          </mxGeometry>
        </mxCell>
        <mxCell id="5EO1GUWcIYaJtxIAbVqV-74" value="- ArrayList&lt;MilitaryUnit&gt;[] planetArmy" style="text;align=left;verticalAlign=top;spacingLeft=4;spacingRight=4;overflow=hidden;rotatable=0;points=[[0,0.5],[1,0.5]];portConstraint=eastwest;rounded=0;shadow=0;html=0;" parent="5EO1GUWcIYaJtxIAbVqV-73" vertex="1">
          <mxGeometry y="30" width="300" height="26" as="geometry" />
        </mxCell>
        <mxCell id="5EO1GUWcIYaJtxIAbVqV-75" value="- ArrayList&lt;MilitaryUnit&gt;[] enemyArmy" style="text;align=left;verticalAlign=top;spacingLeft=4;spacingRight=4;overflow=hidden;rotatable=0;points=[[0,0.5],[1,0.5]];portConstraint=eastwest;rounded=0;shadow=0;html=0;" parent="5EO1GUWcIYaJtxIAbVqV-73" vertex="1">
          <mxGeometry y="56" width="300" height="26" as="geometry" />
        </mxCell>
        <mxCell id="5EO1GUWcIYaJtxIAbVqV-76" value="- ArrayList[][] armies" style="text;align=left;verticalAlign=top;spacingLeft=4;spacingRight=4;overflow=hidden;rotatable=0;points=[[0,0.5],[1,0.5]];portConstraint=eastwest;rounded=0;shadow=0;html=0;" parent="5EO1GUWcIYaJtxIAbVqV-73" vertex="1">
          <mxGeometry y="82" width="300" height="26" as="geometry" />
        </mxCell>
        <mxCell id="5EO1GUWcIYaJtxIAbVqV-77" value="- battleDevelopment: string" style="text;align=left;verticalAlign=top;spacingLeft=4;spacingRight=4;overflow=hidden;rotatable=0;points=[[0,0.5],[1,0.5]];portConstraint=eastwest;rounded=0;shadow=0;html=0;" parent="5EO1GUWcIYaJtxIAbVqV-73" vertex="1">
          <mxGeometry y="108" width="300" height="26" as="geometry" />
        </mxCell>
        <mxCell id="5EO1GUWcIYaJtxIAbVqV-78" value="- initialCostFleet: int[][]" style="text;align=left;verticalAlign=top;spacingLeft=4;spacingRight=4;overflow=hidden;rotatable=0;points=[[0,0.5],[1,0.5]];portConstraint=eastwest;rounded=0;shadow=0;html=0;" parent="5EO1GUWcIYaJtxIAbVqV-73" vertex="1">
          <mxGeometry y="134" width="300" height="26" as="geometry" />
        </mxCell>
        <mxCell id="5EO1GUWcIYaJtxIAbVqV-79" value="- initialNumberUnitsPlanet: int " style="text;align=left;verticalAlign=top;spacingLeft=4;spacingRight=4;overflow=hidden;rotatable=0;points=[[0,0.5],[1,0.5]];portConstraint=eastwest;rounded=0;shadow=0;html=0;" parent="5EO1GUWcIYaJtxIAbVqV-73" vertex="1">
          <mxGeometry y="160" width="300" height="26" as="geometry" />
        </mxCell>
        <mxCell id="5EO1GUWcIYaJtxIAbVqV-80" value="- initialNumberUnitsEnemy: int " style="text;align=left;verticalAlign=top;spacingLeft=4;spacingRight=4;overflow=hidden;rotatable=0;points=[[0,0.5],[1,0.5]];portConstraint=eastwest;rounded=0;shadow=0;html=0;" parent="5EO1GUWcIYaJtxIAbVqV-73" vertex="1">
          <mxGeometry y="186" width="300" height="26" as="geometry" />
        </mxCell>
        <mxCell id="5EO1GUWcIYaJtxIAbVqV-81" value="- wasteMetalDeuterium: int[] " style="text;align=left;verticalAlign=top;spacingLeft=4;spacingRight=4;overflow=hidden;rotatable=0;points=[[0,0.5],[1,0.5]];portConstraint=eastwest;rounded=0;shadow=0;html=0;" parent="5EO1GUWcIYaJtxIAbVqV-73" vertex="1">
          <mxGeometry y="212" width="300" height="26" as="geometry" />
        </mxCell>
        <mxCell id="5EO1GUWcIYaJtxIAbVqV-82" value="- enemyDrops: int[] " style="text;align=left;verticalAlign=top;spacingLeft=4;spacingRight=4;overflow=hidden;rotatable=0;points=[[0,0.5],[1,0.5]];portConstraint=eastwest;rounded=0;shadow=0;html=0;" parent="5EO1GUWcIYaJtxIAbVqV-73" vertex="1">
          <mxGeometry y="238" width="300" height="26" as="geometry" />
        </mxCell>
        <mxCell id="5EO1GUWcIYaJtxIAbVqV-83" value="- planetDrops: int[] " style="text;align=left;verticalAlign=top;spacingLeft=4;spacingRight=4;overflow=hidden;rotatable=0;points=[[0,0.5],[1,0.5]];portConstraint=eastwest;rounded=0;shadow=0;html=0;" parent="5EO1GUWcIYaJtxIAbVqV-73" vertex="1">
          <mxGeometry y="264" width="300" height="26" as="geometry" />
        </mxCell>
        <mxCell id="5EO1GUWcIYaJtxIAbVqV-84" value="- resourcesLooses: int[][] " style="text;align=left;verticalAlign=top;spacingLeft=4;spacingRight=4;overflow=hidden;rotatable=0;points=[[0,0.5],[1,0.5]];portConstraint=eastwest;rounded=0;shadow=0;html=0;" parent="5EO1GUWcIYaJtxIAbVqV-73" vertex="1">
          <mxGeometry y="290" width="300" height="26" as="geometry" />
        </mxCell>
        <mxCell id="5EO1GUWcIYaJtxIAbVqV-85" value="- initialArmies: int[][] " style="text;align=left;verticalAlign=top;spacingLeft=4;spacingRight=4;overflow=hidden;rotatable=0;points=[[0,0.5],[1,0.5]];portConstraint=eastwest;rounded=0;shadow=0;html=0;" parent="5EO1GUWcIYaJtxIAbVqV-73" vertex="1">
          <mxGeometry y="316" width="300" height="26" as="geometry" />
        </mxCell>
        <mxCell id="5EO1GUWcIYaJtxIAbVqV-86" value="- actualNumberUnitsPlanet: int[]" style="text;align=left;verticalAlign=top;spacingLeft=4;spacingRight=4;overflow=hidden;rotatable=0;points=[[0,0.5],[1,0.5]];portConstraint=eastwest;rounded=0;shadow=0;html=0;" parent="5EO1GUWcIYaJtxIAbVqV-73" vertex="1">
          <mxGeometry y="342" width="300" height="26" as="geometry" />
        </mxCell>
        <mxCell id="5EO1GUWcIYaJtxIAbVqV-87" value="- actualNumberUnitsEnemy: int[]" style="text;align=left;verticalAlign=top;spacingLeft=4;spacingRight=4;overflow=hidden;rotatable=0;points=[[0,0.5],[1,0.5]];portConstraint=eastwest;rounded=0;shadow=0;html=0;" parent="5EO1GUWcIYaJtxIAbVqV-73" vertex="1">
          <mxGeometry y="368" width="300" height="26" as="geometry" />
        </mxCell>
        <mxCell id="5EO1GUWcIYaJtxIAbVqV-104" value="Mecánica de batalla" style="swimlane;fontStyle=1;align=center;verticalAlign=top;childLayout=stackLayout;horizontal=1;startSize=30;horizontalStack=0;resizeParent=1;resizeLast=0;collapsible=1;marginBottom=0;rounded=0;shadow=0;strokeWidth=1;" parent="WIyWlLk6GJQsqaUBKTNV-1" vertex="1">
          <mxGeometry x="1355" y="1780" width="350" height="342" as="geometry">
            <mxRectangle x="130" y="380" width="160" height="26" as="alternateBounds" />
          </mxGeometry>
        </mxCell>
        <mxCell id="5EO1GUWcIYaJtxIAbVqV-105" value="+ getBattleReport(int battles): string" style="text;align=left;verticalAlign=top;spacingLeft=4;spacingRight=4;overflow=hidden;rotatable=0;points=[[0,0.5],[1,0.5]];portConstraint=eastwest;rounded=0;shadow=0;html=0;" parent="5EO1GUWcIYaJtxIAbVqV-104" vertex="1">
          <mxGeometry y="30" width="350" height="26" as="geometry" />
        </mxCell>
        <mxCell id="5EO1GUWcIYaJtxIAbVqV-106" value="+ getBattleDevelopment(): string" style="text;align=left;verticalAlign=top;spacingLeft=4;spacingRight=4;overflow=hidden;rotatable=0;points=[[0,0.5],[1,0.5]];portConstraint=eastwest;rounded=0;shadow=0;html=0;" parent="5EO1GUWcIYaJtxIAbVqV-104" vertex="1">
          <mxGeometry y="56" width="350" height="26" as="geometry" />
        </mxCell>
        <mxCell id="5EO1GUWcIYaJtxIAbVqV-107" value="+initInitialArmies(): void" style="text;align=left;verticalAlign=top;spacingLeft=4;spacingRight=4;overflow=hidden;rotatable=0;points=[[0,0.5],[1,0.5]];portConstraint=eastwest;rounded=0;shadow=0;html=0;" parent="5EO1GUWcIYaJtxIAbVqV-104" vertex="1">
          <mxGeometry y="82" width="350" height="26" as="geometry" />
        </mxCell>
        <mxCell id="5EO1GUWcIYaJtxIAbVqV-108" value="+ updateResourcesLooses(): void" style="text;align=left;verticalAlign=top;spacingLeft=4;spacingRight=4;overflow=hidden;rotatable=0;points=[[0,0.5],[1,0.5]];portConstraint=eastwest;rounded=0;shadow=0;html=0;" parent="5EO1GUWcIYaJtxIAbVqV-104" vertex="1">
          <mxGeometry y="108" width="350" height="26" as="geometry" />
        </mxCell>
        <mxCell id="5EO1GUWcIYaJtxIAbVqV-109" value="+ fleetResourceCost(ArrayList&lt;MilitaryUnit&gt;[] army) " style="text;align=left;verticalAlign=top;spacingLeft=4;spacingRight=4;overflow=hidden;rotatable=0;points=[[0,0.5],[1,0.5]];portConstraint=eastwest;rounded=0;shadow=0;html=0;" parent="5EO1GUWcIYaJtxIAbVqV-104" vertex="1">
          <mxGeometry y="134" width="350" height="26" as="geometry" />
        </mxCell>
        <mxCell id="5EO1GUWcIYaJtxIAbVqV-110" value="+ initialFleetNumber(ArrayList&lt;MilitaryUnit&gt;[] army)" style="text;align=left;verticalAlign=top;spacingLeft=4;spacingRight=4;overflow=hidden;rotatable=0;points=[[0,0.5],[1,0.5]];portConstraint=eastwest;rounded=0;shadow=0;html=0;" parent="5EO1GUWcIYaJtxIAbVqV-104" vertex="1">
          <mxGeometry y="160" width="350" height="26" as="geometry" />
        </mxCell>
        <mxCell id="5EO1GUWcIYaJtxIAbVqV-111" value="+ remainderPercentageFleet(ArrayList&lt;MilitaryUnit&gt;[] army): int" style="text;align=left;verticalAlign=top;spacingLeft=4;spacingRight=4;overflow=hidden;rotatable=0;points=[[0,0.5],[1,0.5]];portConstraint=eastwest;rounded=0;shadow=0;html=0;" parent="5EO1GUWcIYaJtxIAbVqV-104" vertex="1">
          <mxGeometry y="186" width="350" height="26" as="geometry" />
        </mxCell>
        <mxCell id="5EO1GUWcIYaJtxIAbVqV-112" value="+remainderPercentageFleet(ArrayList&lt;MilitaryUnit&gt;[] army): int" style="text;align=left;verticalAlign=top;spacingLeft=4;spacingRight=4;overflow=hidden;rotatable=0;points=[[0,0.5],[1,0.5]];portConstraint=eastwest;rounded=0;shadow=0;html=0;" parent="5EO1GUWcIYaJtxIAbVqV-104" vertex="1">
          <mxGeometry y="212" width="350" height="26" as="geometry" />
        </mxCell>
        <mxCell id="5EO1GUWcIYaJtxIAbVqV-113" value="+ getGroupDefender(ArrayList&lt;MilitaryUnit&gt;[] army): int" style="text;align=left;verticalAlign=top;spacingLeft=4;spacingRight=4;overflow=hidden;rotatable=0;points=[[0,0.5],[1,0.5]];portConstraint=eastwest;rounded=0;shadow=0;html=0;" parent="5EO1GUWcIYaJtxIAbVqV-104" vertex="1">
          <mxGeometry y="238" width="350" height="26" as="geometry" />
        </mxCell>
        <mxCell id="5EO1GUWcIYaJtxIAbVqV-115" value="+ getPlanetGroupAttacker(): int" style="text;align=left;verticalAlign=top;spacingLeft=4;spacingRight=4;overflow=hidden;rotatable=0;points=[[0,0.5],[1,0.5]];portConstraint=eastwest;rounded=0;shadow=0;html=0;" parent="5EO1GUWcIYaJtxIAbVqV-104" vertex="1">
          <mxGeometry y="264" width="350" height="26" as="geometry" />
        </mxCell>
        <mxCell id="5EO1GUWcIYaJtxIAbVqV-116" value="+ getEnemyGroupAttacker(): int" style="text;align=left;verticalAlign=top;spacingLeft=4;spacingRight=4;overflow=hidden;rotatable=0;points=[[0,0.5],[1,0.5]];portConstraint=eastwest;rounded=0;shadow=0;html=0;" parent="5EO1GUWcIYaJtxIAbVqV-104" vertex="1">
          <mxGeometry y="290" width="350" height="26" as="geometry" />
        </mxCell>
        <mxCell id="5EO1GUWcIYaJtxIAbVqV-117" value="+ resetArmyArmor(): void" style="text;align=left;verticalAlign=top;spacingLeft=4;spacingRight=4;overflow=hidden;rotatable=0;points=[[0,0.5],[1,0.5]];portConstraint=eastwest;rounded=0;shadow=0;html=0;" parent="5EO1GUWcIYaJtxIAbVqV-104" vertex="1">
          <mxGeometry y="316" width="350" height="26" as="geometry" />
        </mxCell>
        <mxCell id="5EO1GUWcIYaJtxIAbVqV-119" value="Main" style="swimlane;fontStyle=1;align=center;verticalAlign=top;childLayout=stackLayout;horizontal=1;startSize=30;horizontalStack=0;resizeParent=1;resizeLast=0;collapsible=1;marginBottom=0;rounded=0;shadow=0;strokeWidth=1;" parent="WIyWlLk6GJQsqaUBKTNV-1" vertex="1">
          <mxGeometry x="1800" y="1840" width="350" height="88" as="geometry">
            <mxRectangle x="130" y="380" width="160" height="26" as="alternateBounds" />
          </mxGeometry>
        </mxCell>
        <mxCell id="5EO1GUWcIYaJtxIAbVqV-120" value="+ createEnemyArmy()" style="text;align=left;verticalAlign=top;spacingLeft=4;spacingRight=4;overflow=hidden;rotatable=0;points=[[0,0.5],[1,0.5]];portConstraint=eastwest;rounded=0;shadow=0;html=0;" parent="5EO1GUWcIYaJtxIAbVqV-119" vertex="1">
          <mxGeometry y="30" width="350" height="26" as="geometry" />
        </mxCell>
        <mxCell id="5EO1GUWcIYaJtxIAbVqV-121" value="+ ViewThreat()" style="text;align=left;verticalAlign=top;spacingLeft=4;spacingRight=4;overflow=hidden;rotatable=0;points=[[0,0.5],[1,0.5]];portConstraint=eastwest;rounded=0;shadow=0;html=0;" parent="5EO1GUWcIYaJtxIAbVqV-119" vertex="1">
          <mxGeometry y="56" width="350" height="26" as="geometry" />
        </mxCell>
        <mxCell id="JGPPVCsCdQ4sEg8fXKJ5-0" value="" style="endArrow=blockThin;html=1;rounded=0;entryX=1.01;entryY=0.01;entryDx=0;entryDy=0;dashed=1;dashPattern=8 8;endFill=0;exitX=0.17;exitY=0;exitDx=0;exitDy=0;exitPerimeter=0;entryPerimeter=0;" edge="1" parent="WIyWlLk6GJQsqaUBKTNV-1" source="YW5f9N3jxOXYz25lWCUv-65" target="tPDsgB1794YTJnG31M0B-0">
          <mxGeometry width="50" height="50" relative="1" as="geometry">
            <mxPoint x="740" y="1270" as="sourcePoint" />
            <mxPoint x="410" y="950" as="targetPoint" />
          </mxGeometry>
        </mxCell>
        <mxCell id="JGPPVCsCdQ4sEg8fXKJ5-2" value="" style="endArrow=classic;html=1;rounded=0;exitX=0.995;exitY=0.072;exitDx=0;exitDy=0;exitPerimeter=0;entryX=-0.009;entryY=0.03;entryDx=0;entryDy=0;entryPerimeter=0;" edge="1" parent="WIyWlLk6GJQsqaUBKTNV-1" source="YW5f9N3jxOXYz25lWCUv-4" target="zkfFHV4jXpPFQw0GAbJ--0">
          <mxGeometry width="50" height="50" relative="1" as="geometry">
            <mxPoint x="1580" y="990" as="sourcePoint" />
            <mxPoint x="1630" y="940" as="targetPoint" />
          </mxGeometry>
        </mxCell>
        <mxCell id="JGPPVCsCdQ4sEg8fXKJ5-3" value="" style="endArrow=classic;html=1;rounded=0;exitX=0.995;exitY=0.146;exitDx=0;exitDy=0;exitPerimeter=0;entryX=-0.007;entryY=0.042;entryDx=0;entryDy=0;entryPerimeter=0;" edge="1" parent="WIyWlLk6GJQsqaUBKTNV-1" source="YW5f9N3jxOXYz25lWCUv-4" target="5EO1GUWcIYaJtxIAbVqV-73">
          <mxGeometry width="50" height="50" relative="1" as="geometry">
            <mxPoint x="1580" y="1470" as="sourcePoint" />
            <mxPoint x="1630" y="1420" as="targetPoint" />
          </mxGeometry>
        </mxCell>
        <mxCell id="JGPPVCsCdQ4sEg8fXKJ5-4" value="" style="endArrow=classic;html=1;rounded=0;entryX=0.5;entryY=0;entryDx=0;entryDy=0;" edge="1" parent="WIyWlLk6GJQsqaUBKTNV-1" source="5EO1GUWcIYaJtxIAbVqV-87" target="5EO1GUWcIYaJtxIAbVqV-104">
          <mxGeometry width="50" height="50" relative="1" as="geometry">
            <mxPoint x="1580" y="1820" as="sourcePoint" />
            <mxPoint x="1630" y="1770" as="targetPoint" />
          </mxGeometry>
        </mxCell>
      </root>
    </mxGraphModel>
  </diagram>
</mxfile>
